G04 #@! TF.GenerationSoftware,KiCad,Pcbnew,5.0.2-bee76a0~70~ubuntu14.04.1*
G04 #@! TF.CreationDate,2019-05-26T21:23:03+02:00*
G04 #@! TF.ProjectId,nano_shield_c,6e616e6f-5f73-4686-9965-6c645f632e6b,rev?*
G04 #@! TF.SameCoordinates,Original*
G04 #@! TF.FileFunction,Copper,L1,Top*
G04 #@! TF.FilePolarity,Positive*
%FSLAX46Y46*%
G04 Gerber Fmt 4.6, Leading zero omitted, Abs format (unit mm)*
G04 Created by KiCad (PCBNEW 5.0.2-bee76a0~70~ubuntu14.04.1) date Ned 26 Svi 2019 21:23:03*
%MOMM*%
%LPD*%
G01*
G04 APERTURE LIST*
G04 #@! TA.AperFunction,ComponentPad*
%ADD10R,3.200000X3.200000*%
G04 #@! TD*
G04 #@! TA.AperFunction,ComponentPad*
%ADD11O,3.200000X3.200000*%
G04 #@! TD*
G04 #@! TA.AperFunction,ComponentPad*
%ADD12C,1.600000*%
G04 #@! TD*
G04 #@! TA.AperFunction,ComponentPad*
%ADD13O,1.600000X1.600000*%
G04 #@! TD*
G04 #@! TA.AperFunction,ComponentPad*
%ADD14R,1.700000X1.700000*%
G04 #@! TD*
G04 #@! TA.AperFunction,ComponentPad*
%ADD15O,1.700000X1.700000*%
G04 #@! TD*
G04 #@! TA.AperFunction,ComponentPad*
%ADD16R,1.600000X1.600000*%
G04 #@! TD*
G04 #@! TA.AperFunction,ComponentPad*
%ADD17R,1.905000X2.000000*%
G04 #@! TD*
G04 #@! TA.AperFunction,ComponentPad*
%ADD18O,1.905000X2.000000*%
G04 #@! TD*
G04 #@! TA.AperFunction,ComponentPad*
%ADD19R,3.500120X3.500120*%
G04 #@! TD*
G04 #@! TA.AperFunction,ComponentPad*
%ADD20C,3.500120*%
G04 #@! TD*
G04 #@! TA.AperFunction,Conductor*
%ADD21C,0.500000*%
G04 #@! TD*
G04 #@! TA.AperFunction,Conductor*
%ADD22C,1.000000*%
G04 #@! TD*
G04 #@! TA.AperFunction,Conductor*
%ADD23C,0.254000*%
G04 #@! TD*
G04 APERTURE END LIST*
D10*
G04 #@! TO.P,D2,1*
G04 #@! TO.N,Net-(C1-Pad1)*
X137795000Y-68072000D03*
D11*
G04 #@! TO.P,D2,2*
G04 #@! TO.N,VIN*
X125095000Y-68072000D03*
G04 #@! TD*
D12*
G04 #@! TO.P,R4,1*
G04 #@! TO.N,Net-(J10-Pad4)*
X134493000Y-77089000D03*
D13*
G04 #@! TO.P,R4,2*
G04 #@! TO.N,D1*
X134493000Y-84709000D03*
G04 #@! TD*
G04 #@! TO.P,R6,2*
G04 #@! TO.N,+5V*
X139573000Y-86893400D03*
D12*
G04 #@! TO.P,R6,1*
G04 #@! TO.N,SDA*
X139573000Y-94513400D03*
G04 #@! TD*
G04 #@! TO.P,R7,1*
G04 #@! TO.N,SCL*
X142621000Y-94513400D03*
D13*
G04 #@! TO.P,R7,2*
G04 #@! TO.N,+5V*
X142621000Y-86893400D03*
G04 #@! TD*
D14*
G04 #@! TO.P,J14,1*
G04 #@! TO.N,SDA*
X154178000Y-101092000D03*
D15*
G04 #@! TO.P,J14,2*
G04 #@! TO.N,SCL*
X156718000Y-101092000D03*
G04 #@! TO.P,J14,3*
G04 #@! TO.N,GND*
X159258000Y-101092000D03*
G04 #@! TO.P,J14,4*
G04 #@! TO.N,+5V*
X161798000Y-101092000D03*
G04 #@! TD*
D14*
G04 #@! TO.P,D1,1*
G04 #@! TO.N,Net-(D1-Pad1)*
X154178000Y-115570000D03*
D15*
G04 #@! TO.P,D1,2*
G04 #@! TO.N,GND*
X156718000Y-115570000D03*
G04 #@! TO.P,D1,3*
G04 #@! TO.N,Net-(D1-Pad3)*
X159258000Y-115570000D03*
G04 #@! TO.P,D1,4*
G04 #@! TO.N,Net-(D1-Pad4)*
X161798000Y-115570000D03*
G04 #@! TD*
D16*
G04 #@! TO.P,A1,1*
G04 #@! TO.N,D1*
X130968001Y-79269001D03*
D13*
G04 #@! TO.P,A1,17*
G04 #@! TO.N,Net-(A1-Pad17)*
X146208001Y-112289001D03*
G04 #@! TO.P,A1,2*
G04 #@! TO.N,D0*
X130968001Y-81809001D03*
G04 #@! TO.P,A1,18*
G04 #@! TO.N,Net-(A1-Pad18)*
X146208001Y-109749001D03*
G04 #@! TO.P,A1,3*
G04 #@! TO.N,Net-(A1-Pad3)*
X130968001Y-84349001D03*
G04 #@! TO.P,A1,19*
G04 #@! TO.N,A0*
X146208001Y-107209001D03*
G04 #@! TO.P,A1,4*
G04 #@! TO.N,GND*
X130968001Y-86889001D03*
G04 #@! TO.P,A1,20*
G04 #@! TO.N,A1*
X146208001Y-104669001D03*
G04 #@! TO.P,A1,5*
G04 #@! TO.N,D2*
X130968001Y-89429001D03*
G04 #@! TO.P,A1,21*
G04 #@! TO.N,A2*
X146208001Y-102129001D03*
G04 #@! TO.P,A1,6*
G04 #@! TO.N,D3*
X130968001Y-91969001D03*
G04 #@! TO.P,A1,22*
G04 #@! TO.N,A3*
X146208001Y-99589001D03*
G04 #@! TO.P,A1,7*
G04 #@! TO.N,D4*
X130968001Y-94509001D03*
G04 #@! TO.P,A1,23*
G04 #@! TO.N,SDA*
X146208001Y-97049001D03*
G04 #@! TO.P,A1,8*
G04 #@! TO.N,D5*
X130968001Y-97049001D03*
G04 #@! TO.P,A1,24*
G04 #@! TO.N,SCL*
X146208001Y-94509001D03*
G04 #@! TO.P,A1,9*
G04 #@! TO.N,D6*
X130968001Y-99589001D03*
G04 #@! TO.P,A1,25*
G04 #@! TO.N,A6*
X146208001Y-91969001D03*
G04 #@! TO.P,A1,10*
G04 #@! TO.N,D7*
X130968001Y-102129001D03*
G04 #@! TO.P,A1,26*
G04 #@! TO.N,A7*
X146208001Y-89429001D03*
G04 #@! TO.P,A1,11*
G04 #@! TO.N,D8*
X130968001Y-104669001D03*
G04 #@! TO.P,A1,27*
G04 #@! TO.N,+5V*
X146208001Y-86889001D03*
G04 #@! TO.P,A1,12*
G04 #@! TO.N,Net-(A1-Pad12)*
X130968001Y-107209001D03*
G04 #@! TO.P,A1,28*
G04 #@! TO.N,Net-(A1-Pad28)*
X146208001Y-84349001D03*
G04 #@! TO.P,A1,13*
G04 #@! TO.N,Net-(A1-Pad13)*
X130968001Y-109749001D03*
G04 #@! TO.P,A1,29*
G04 #@! TO.N,GND*
X146208001Y-81809001D03*
G04 #@! TO.P,A1,14*
G04 #@! TO.N,Net-(A1-Pad14)*
X130968001Y-112289001D03*
G04 #@! TO.P,A1,30*
G04 #@! TO.N,Net-(A1-Pad30)*
X146208001Y-79269001D03*
G04 #@! TO.P,A1,15*
G04 #@! TO.N,D12*
X130968001Y-114829001D03*
G04 #@! TO.P,A1,16*
G04 #@! TO.N,D13*
X146208001Y-114829001D03*
G04 #@! TD*
D12*
G04 #@! TO.P,C1,2*
G04 #@! TO.N,GND*
X144145000Y-70072000D03*
D16*
G04 #@! TO.P,C1,1*
G04 #@! TO.N,Net-(C1-Pad1)*
X144145000Y-68072000D03*
G04 #@! TD*
G04 #@! TO.P,C2,1*
G04 #@! TO.N,+5V*
X151130000Y-80010000D03*
D12*
G04 #@! TO.P,C2,2*
G04 #@! TO.N,GND*
X151130000Y-82010000D03*
G04 #@! TD*
D14*
G04 #@! TO.P,J12,1*
G04 #@! TO.N,+5V*
X161798000Y-108204000D03*
D15*
G04 #@! TO.P,J12,2*
G04 #@! TO.N,D12*
X159258000Y-108204000D03*
G04 #@! TO.P,J12,3*
G04 #@! TO.N,D13*
X156718000Y-108204000D03*
G04 #@! TO.P,J12,4*
G04 #@! TO.N,GND*
X154178000Y-108204000D03*
G04 #@! TD*
D17*
G04 #@! TO.P,U1,1*
G04 #@! TO.N,Net-(C1-Pad1)*
X153924000Y-74676000D03*
D18*
G04 #@! TO.P,U1,2*
G04 #@! TO.N,GND*
X156464000Y-74676000D03*
G04 #@! TO.P,U1,3*
G04 #@! TO.N,+5V*
X159004000Y-74676000D03*
G04 #@! TD*
D14*
G04 #@! TO.P,J13,1*
G04 #@! TO.N,A0*
X156591000Y-94996000D03*
D15*
G04 #@! TO.P,J13,2*
G04 #@! TO.N,+5V*
X159131000Y-94996000D03*
G04 #@! TO.P,J13,3*
G04 #@! TO.N,GND*
X161671000Y-94996000D03*
G04 #@! TD*
D14*
G04 #@! TO.P,J7,1*
G04 #@! TO.N,GND*
X124968000Y-91059000D03*
G04 #@! TD*
D15*
G04 #@! TO.P,J11,3*
G04 #@! TO.N,GND*
X119888000Y-114554000D03*
G04 #@! TO.P,J11,2*
G04 #@! TO.N,+5V*
X122428000Y-114554000D03*
D14*
G04 #@! TO.P,J11,1*
G04 #@! TO.N,D8*
X124968000Y-114554000D03*
G04 #@! TD*
G04 #@! TO.P,J9,1*
G04 #@! TO.N,D7*
X124968000Y-108839000D03*
D15*
G04 #@! TO.P,J9,2*
G04 #@! TO.N,D6*
X124968000Y-106299000D03*
G04 #@! TO.P,J9,3*
G04 #@! TO.N,D5*
X124968000Y-103759000D03*
G04 #@! TD*
D14*
G04 #@! TO.P,J10,1*
G04 #@! TO.N,+5V*
X124968000Y-84709000D03*
D15*
G04 #@! TO.P,J10,2*
G04 #@! TO.N,GND*
X124968000Y-82169000D03*
G04 #@! TO.P,J10,3*
G04 #@! TO.N,D0*
X124968000Y-79629000D03*
G04 #@! TO.P,J10,4*
G04 #@! TO.N,Net-(J10-Pad4)*
X124968000Y-77089000D03*
G04 #@! TD*
D14*
G04 #@! TO.P,J8,1*
G04 #@! TO.N,D4*
X124968000Y-99949000D03*
D15*
G04 #@! TO.P,J8,2*
G04 #@! TO.N,D3*
X124968000Y-97409000D03*
G04 #@! TO.P,J8,3*
G04 #@! TO.N,D2*
X124968000Y-94869000D03*
G04 #@! TD*
D14*
G04 #@! TO.P,J2,1*
G04 #@! TO.N,A1*
X156591000Y-92456000D03*
D15*
G04 #@! TO.P,J2,2*
G04 #@! TO.N,+5V*
X159131000Y-92456000D03*
G04 #@! TO.P,J2,3*
G04 #@! TO.N,GND*
X161671000Y-92456000D03*
G04 #@! TD*
G04 #@! TO.P,J3,3*
G04 #@! TO.N,GND*
X161671000Y-89916000D03*
G04 #@! TO.P,J3,2*
G04 #@! TO.N,+5V*
X159131000Y-89916000D03*
D14*
G04 #@! TO.P,J3,1*
G04 #@! TO.N,A2*
X156591000Y-89916000D03*
G04 #@! TD*
G04 #@! TO.P,J4,1*
G04 #@! TO.N,A3*
X156591000Y-86106000D03*
D15*
G04 #@! TO.P,J4,2*
G04 #@! TO.N,+5V*
X159131000Y-86106000D03*
G04 #@! TO.P,J4,3*
G04 #@! TO.N,GND*
X161671000Y-86106000D03*
G04 #@! TD*
G04 #@! TO.P,J5,3*
G04 #@! TO.N,GND*
X161671000Y-83566000D03*
G04 #@! TO.P,J5,2*
G04 #@! TO.N,+5V*
X159131000Y-83566000D03*
D14*
G04 #@! TO.P,J5,1*
G04 #@! TO.N,A6*
X156591000Y-83566000D03*
G04 #@! TD*
G04 #@! TO.P,J6,1*
G04 #@! TO.N,A7*
X156591000Y-81026000D03*
D15*
G04 #@! TO.P,J6,2*
G04 #@! TO.N,+5V*
X159131000Y-81026000D03*
G04 #@! TO.P,J6,3*
G04 #@! TO.N,GND*
X161671000Y-81026000D03*
G04 #@! TD*
D19*
G04 #@! TO.P,J1,1*
G04 #@! TO.N,VIN*
X118872000Y-67564000D03*
D20*
G04 #@! TO.P,J1,2*
G04 #@! TO.N,GND*
X118872000Y-72644000D03*
G04 #@! TD*
D12*
G04 #@! TO.P,R5,1*
G04 #@! TO.N,GND*
X137668000Y-84709000D03*
D13*
G04 #@! TO.P,R5,2*
G04 #@! TO.N,Net-(J10-Pad4)*
X137668000Y-77089000D03*
G04 #@! TD*
G04 #@! TO.P,R1,2*
G04 #@! TO.N,Net-(D1-Pad1)*
X140843000Y-114554000D03*
D12*
G04 #@! TO.P,R1,1*
G04 #@! TO.N,Net-(A1-Pad12)*
X140843000Y-106934000D03*
G04 #@! TD*
G04 #@! TO.P,R2,1*
G04 #@! TO.N,Net-(A1-Pad13)*
X137668000Y-106934000D03*
D13*
G04 #@! TO.P,R2,2*
G04 #@! TO.N,Net-(D1-Pad3)*
X137668000Y-114554000D03*
G04 #@! TD*
G04 #@! TO.P,R3,2*
G04 #@! TO.N,Net-(D1-Pad4)*
X134493000Y-114554000D03*
D12*
G04 #@! TO.P,R3,1*
G04 #@! TO.N,Net-(A1-Pad14)*
X134493000Y-106934000D03*
G04 #@! TD*
D21*
G04 #@! TO.N,Net-(J10-Pad4)*
X137668000Y-77089000D02*
X124968000Y-77089000D01*
G04 #@! TO.N,D1*
X134493000Y-83577630D02*
X134493000Y-84709000D01*
X134493000Y-81494000D02*
X134493000Y-83577630D01*
X132268001Y-79269001D02*
X134493000Y-81494000D01*
X130968001Y-79269001D02*
X132268001Y-79269001D01*
G04 #@! TO.N,Net-(D1-Pad4)*
X160948001Y-116419999D02*
X161798000Y-115570000D01*
X159288978Y-118079022D02*
X160948001Y-116419999D01*
X138018022Y-118079022D02*
X159288978Y-118079022D01*
X134493000Y-114554000D02*
X138018022Y-118079022D01*
G04 #@! TO.N,Net-(A1-Pad13)*
X134852999Y-109749001D02*
X137668000Y-106934000D01*
X130968001Y-109749001D02*
X134852999Y-109749001D01*
G04 #@! TO.N,Net-(D1-Pad3)*
X158408001Y-116419999D02*
X159258000Y-115570000D01*
X157748988Y-117079012D02*
X158408001Y-116419999D01*
X139061642Y-117079012D02*
X157748988Y-117079012D01*
X137668000Y-115685370D02*
X139061642Y-117079012D01*
X137668000Y-114554000D02*
X137668000Y-115685370D01*
G04 #@! TO.N,Net-(D1-Pad1)*
X141386632Y-116229002D02*
X151152998Y-116229002D01*
X152828000Y-115570000D02*
X154178000Y-115570000D01*
X152168998Y-116229002D02*
X152828000Y-115570000D01*
X141386632Y-116229002D02*
X152168998Y-116229002D01*
X140843000Y-115685370D02*
X141386632Y-116229002D01*
X140843000Y-114554000D02*
X140843000Y-115685370D01*
G04 #@! TO.N,Net-(A1-Pad12)*
X140043001Y-106134001D02*
X140843000Y-106934000D01*
X139442999Y-105533999D02*
X140043001Y-106134001D01*
X132643003Y-105533999D02*
X139442999Y-105533999D01*
X130968001Y-107209001D02*
X132643003Y-105533999D01*
D22*
G04 #@! TO.N,GND*
X140567999Y-81809001D02*
X137668000Y-84709000D01*
X146208001Y-81809001D02*
X140567999Y-81809001D01*
X135487999Y-86889001D02*
X130968001Y-86889001D01*
X137668000Y-84709000D02*
X135487999Y-86889001D01*
X126798002Y-91059000D02*
X130968001Y-86889001D01*
X124968000Y-91059000D02*
X126798002Y-91059000D01*
X126248000Y-82169000D02*
X124968000Y-82169000D01*
X130968001Y-86889001D02*
X126248000Y-82169000D01*
X119888000Y-94289000D02*
X123118000Y-91059000D01*
X119888000Y-114554000D02*
X119888000Y-94289000D01*
X123118000Y-91059000D02*
X120396000Y-88337000D01*
X124968000Y-91059000D02*
X123118000Y-91059000D01*
X120523000Y-82169000D02*
X120396000Y-82296000D01*
X124968000Y-82169000D02*
X120523000Y-82169000D01*
X120396000Y-88337000D02*
X120396000Y-82296000D01*
X158418001Y-113869999D02*
X157567999Y-114720001D01*
X157567999Y-114720001D02*
X156718000Y-115570000D01*
X162614001Y-113869999D02*
X158418001Y-113869999D01*
X163498001Y-114753999D02*
X162614001Y-113869999D01*
X163498001Y-116386001D02*
X163498001Y-114753999D01*
X160704970Y-119179032D02*
X163498001Y-116386001D01*
X122675951Y-119179032D02*
X160704970Y-119179032D01*
X119888000Y-116391081D02*
X122675951Y-119179032D01*
X119888000Y-114554000D02*
X119888000Y-116391081D01*
X156718000Y-115570000D02*
X156718000Y-113030000D01*
X154178000Y-110490000D02*
X154178000Y-108204000D01*
X156718000Y-113030000D02*
X154178000Y-110490000D01*
X154178000Y-108204000D02*
X154178000Y-106172000D01*
X154178000Y-106172000D02*
X159258000Y-101092000D01*
X161671000Y-98679000D02*
X161671000Y-94996000D01*
X159258000Y-101092000D02*
X161671000Y-98679000D01*
X161671000Y-94996000D02*
X161671000Y-81026000D01*
X156464000Y-75819000D02*
X156464000Y-74676000D01*
X161671000Y-81026000D02*
X156464000Y-75819000D01*
X120396000Y-76642958D02*
X120396000Y-82296000D01*
X118872000Y-75118958D02*
X120396000Y-76642958D01*
X118872000Y-72644000D02*
X118872000Y-75118958D01*
X137668000Y-84709000D02*
X139573000Y-82804000D01*
X150929001Y-81809001D02*
X151130000Y-82010000D01*
X146208001Y-81809001D02*
X150929001Y-81809001D01*
X144145000Y-79746000D02*
X146208001Y-81809001D01*
X144145000Y-70072000D02*
X144145000Y-79746000D01*
X144944999Y-70871999D02*
X144145000Y-70072000D01*
X150599001Y-76526001D02*
X144944999Y-70871999D01*
X155556501Y-76526001D02*
X150599001Y-76526001D01*
X156464000Y-75618502D02*
X155556501Y-76526001D01*
X156464000Y-74676000D02*
X156464000Y-75618502D01*
D21*
G04 #@! TO.N,D0*
X130968001Y-81809001D02*
X128545001Y-81809001D01*
X126365000Y-79629000D02*
X124968000Y-79629000D01*
X128545001Y-81809001D02*
X126365000Y-79629000D01*
G04 #@! TO.N,A0*
X155241000Y-94996000D02*
X151892000Y-98345000D01*
X156591000Y-94996000D02*
X155241000Y-94996000D01*
X151892000Y-101525002D02*
X146208001Y-107209001D01*
X151892000Y-98345000D02*
X151892000Y-101525002D01*
G04 #@! TO.N,A1*
X155241000Y-92456000D02*
X150876000Y-96821000D01*
X156591000Y-92456000D02*
X155241000Y-92456000D01*
X150876000Y-100001002D02*
X146208001Y-104669001D01*
X150876000Y-96821000D02*
X150876000Y-100001002D01*
G04 #@! TO.N,D2*
X130407999Y-89429001D02*
X130968001Y-89429001D01*
X124968000Y-94869000D02*
X130407999Y-89429001D01*
G04 #@! TO.N,A2*
X155241000Y-89916000D02*
X149987000Y-95170000D01*
X156591000Y-89916000D02*
X155241000Y-89916000D01*
X149987000Y-98350002D02*
X146208001Y-102129001D01*
X149987000Y-95170000D02*
X149987000Y-98350002D01*
G04 #@! TO.N,D3*
X130407999Y-91969001D02*
X130968001Y-91969001D01*
X124968000Y-97409000D02*
X130407999Y-91969001D01*
G04 #@! TO.N,A3*
X155241000Y-86106000D02*
X148844000Y-92503000D01*
X156591000Y-86106000D02*
X155241000Y-86106000D01*
X148844000Y-96953002D02*
X146208001Y-99589001D01*
X148844000Y-92503000D02*
X148844000Y-96953002D01*
G04 #@! TO.N,D4*
X125528002Y-99949000D02*
X130968001Y-94509001D01*
X124968000Y-99949000D02*
X125528002Y-99949000D01*
G04 #@! TO.N,D5*
X130968001Y-97049001D02*
X127000000Y-101017002D01*
X127000000Y-101727000D02*
X124968000Y-103759000D01*
X127000000Y-101017002D02*
X127000000Y-101727000D01*
G04 #@! TO.N,D6*
X130168002Y-100389000D02*
X130968001Y-99589001D01*
X127867980Y-102689022D02*
X130168002Y-100389000D01*
X124968000Y-106299000D02*
X126343980Y-106299000D01*
X126343980Y-106299000D02*
X127867980Y-104775000D01*
X127867980Y-104775000D02*
X127867980Y-102689022D01*
G04 #@! TO.N,A6*
X146208001Y-91969001D02*
X147552999Y-91969001D01*
X148336000Y-90471000D02*
X148336000Y-91186000D01*
X155241000Y-83566000D02*
X148336000Y-90471000D01*
X156591000Y-83566000D02*
X155241000Y-83566000D01*
X147552999Y-91969001D02*
X148336000Y-91186000D01*
G04 #@! TO.N,D7*
X126318000Y-108839000D02*
X124968000Y-108839000D01*
X128717990Y-106439010D02*
X126318000Y-108839000D01*
X128717990Y-104379012D02*
X128717990Y-106439010D01*
X130968001Y-102129001D02*
X128717990Y-104379012D01*
G04 #@! TO.N,A7*
X146208001Y-89429001D02*
X147425999Y-89429001D01*
X148209000Y-88058000D02*
X148209000Y-88646000D01*
X155241000Y-81026000D02*
X148209000Y-88058000D01*
X156591000Y-81026000D02*
X155241000Y-81026000D01*
X147425999Y-89429001D02*
X148209000Y-88646000D01*
G04 #@! TO.N,D8*
X130168002Y-105469000D02*
X130968001Y-104669001D01*
X129568000Y-111304000D02*
X129568000Y-106069002D01*
X126318000Y-114554000D02*
X129568000Y-111304000D01*
X129568000Y-106069002D02*
X130168002Y-105469000D01*
X124968000Y-114554000D02*
X126318000Y-114554000D01*
D22*
G04 #@! TO.N,+5V*
X146203602Y-86893400D02*
X146208001Y-86889001D01*
G04 #@! TO.N,VIN*
X124587000Y-67564000D02*
X125095000Y-68072000D01*
X118872000Y-67564000D02*
X124587000Y-67564000D01*
D21*
G04 #@! TO.N,SDA*
X142108601Y-97049001D02*
X139573000Y-94513400D01*
X146208001Y-97049001D02*
X142108601Y-97049001D01*
G04 #@! TO.N,SCL*
X142625399Y-94509001D02*
X142621000Y-94513400D01*
X146208001Y-94509001D02*
X142625399Y-94509001D01*
D22*
G04 #@! TO.N,Net-(C1-Pad1)*
X153924000Y-74628500D02*
X153924000Y-74676000D01*
X147367500Y-68072000D02*
X153924000Y-74628500D01*
X144145000Y-68072000D02*
X147367500Y-68072000D01*
X137795000Y-68072000D02*
X144145000Y-68072000D01*
G04 #@! TD*
D23*
G04 #@! TO.N,GND*
G36*
X172290000Y-127290000D02*
X109710000Y-127290000D01*
X109710000Y-123592040D01*
X109770667Y-123592040D01*
X109770667Y-124407960D01*
X109973578Y-125198245D01*
X110366650Y-125913241D01*
X110925185Y-126508021D01*
X111614088Y-126945212D01*
X112390074Y-127197345D01*
X113204383Y-127248577D01*
X114005850Y-127095689D01*
X114744116Y-126748287D01*
X115372793Y-126228201D01*
X115852378Y-125568108D01*
X116152738Y-124809486D01*
X116255000Y-124000000D01*
X116203463Y-123592040D01*
X165770667Y-123592040D01*
X165770667Y-124407960D01*
X165973578Y-125198245D01*
X166366650Y-125913241D01*
X166925185Y-126508021D01*
X167614088Y-126945212D01*
X168390074Y-127197345D01*
X169204383Y-127248577D01*
X170005850Y-127095689D01*
X170744116Y-126748287D01*
X171372793Y-126228201D01*
X171852378Y-125568108D01*
X172152738Y-124809486D01*
X172255000Y-124000000D01*
X172152738Y-123190514D01*
X171852378Y-122431892D01*
X171372793Y-121771799D01*
X170744116Y-121251713D01*
X170005850Y-120904311D01*
X169204383Y-120751423D01*
X168390074Y-120802655D01*
X167614088Y-121054788D01*
X166925185Y-121491979D01*
X166366650Y-122086759D01*
X165973578Y-122801755D01*
X165770667Y-123592040D01*
X116203463Y-123592040D01*
X116152738Y-123190514D01*
X115852378Y-122431892D01*
X115372793Y-121771799D01*
X114744116Y-121251713D01*
X114005850Y-120904311D01*
X113204383Y-120751423D01*
X112390074Y-120802655D01*
X111614088Y-121054788D01*
X110925185Y-121491979D01*
X110366650Y-122086759D01*
X109973578Y-122801755D01*
X109770667Y-123592040D01*
X109710000Y-123592040D01*
X109710000Y-114910892D01*
X118446514Y-114910892D01*
X118692817Y-115435358D01*
X119121076Y-115825645D01*
X119531110Y-115995476D01*
X119761000Y-115874155D01*
X119761000Y-114681000D01*
X118567181Y-114681000D01*
X118446514Y-114910892D01*
X109710000Y-114910892D01*
X109710000Y-114197108D01*
X118446514Y-114197108D01*
X118567181Y-114427000D01*
X119761000Y-114427000D01*
X119761000Y-113233845D01*
X120015000Y-113233845D01*
X120015000Y-114427000D01*
X120035000Y-114427000D01*
X120035000Y-114681000D01*
X120015000Y-114681000D01*
X120015000Y-115874155D01*
X120244890Y-115995476D01*
X120654924Y-115825645D01*
X121083183Y-115435358D01*
X121144157Y-115305522D01*
X121357375Y-115624625D01*
X121848582Y-115952839D01*
X122281744Y-116039000D01*
X122574256Y-116039000D01*
X123007418Y-115952839D01*
X123498625Y-115624625D01*
X123510816Y-115606381D01*
X123519843Y-115651765D01*
X123660191Y-115861809D01*
X123870235Y-116002157D01*
X124118000Y-116051440D01*
X125818000Y-116051440D01*
X126065765Y-116002157D01*
X126275809Y-115861809D01*
X126416157Y-115651765D01*
X126460674Y-115427959D01*
X126663310Y-115387652D01*
X126956049Y-115192049D01*
X127005425Y-115118153D01*
X129559587Y-112563992D01*
X129616261Y-112848910D01*
X129933424Y-113323578D01*
X130285759Y-113559001D01*
X129933424Y-113794424D01*
X129616261Y-114269092D01*
X129504888Y-114829001D01*
X129616261Y-115388910D01*
X129933424Y-115863578D01*
X130408092Y-116180741D01*
X130826668Y-116264001D01*
X131109334Y-116264001D01*
X131527910Y-116180741D01*
X132002578Y-115863578D01*
X132319741Y-115388910D01*
X132431114Y-114829001D01*
X132376413Y-114554000D01*
X133029887Y-114554000D01*
X133141260Y-115113909D01*
X133458423Y-115588577D01*
X133933091Y-115905740D01*
X134351667Y-115989000D01*
X134634333Y-115989000D01*
X134669439Y-115982017D01*
X137330599Y-118643178D01*
X137379973Y-118717071D01*
X137453866Y-118766445D01*
X137453867Y-118766446D01*
X137672712Y-118912674D01*
X137930857Y-118964022D01*
X137930861Y-118964022D01*
X138018022Y-118981359D01*
X138105183Y-118964022D01*
X159201817Y-118964022D01*
X159288978Y-118981359D01*
X159376139Y-118964022D01*
X159376143Y-118964022D01*
X159634288Y-118912674D01*
X159927027Y-118717071D01*
X159976403Y-118643175D01*
X161579041Y-117040538D01*
X161651744Y-117055000D01*
X161944256Y-117055000D01*
X162377418Y-116968839D01*
X162868625Y-116640625D01*
X163196839Y-116149418D01*
X163312092Y-115570000D01*
X163196839Y-114990582D01*
X162868625Y-114499375D01*
X162377418Y-114171161D01*
X161944256Y-114085000D01*
X161651744Y-114085000D01*
X161218582Y-114171161D01*
X160727375Y-114499375D01*
X160528000Y-114797761D01*
X160328625Y-114499375D01*
X159837418Y-114171161D01*
X159404256Y-114085000D01*
X159111744Y-114085000D01*
X158678582Y-114171161D01*
X158187375Y-114499375D01*
X157974157Y-114818478D01*
X157913183Y-114688642D01*
X157484924Y-114298355D01*
X157074890Y-114128524D01*
X156845000Y-114249845D01*
X156845000Y-115443000D01*
X156865000Y-115443000D01*
X156865000Y-115697000D01*
X156845000Y-115697000D01*
X156845000Y-115717000D01*
X156591000Y-115717000D01*
X156591000Y-115697000D01*
X156571000Y-115697000D01*
X156571000Y-115443000D01*
X156591000Y-115443000D01*
X156591000Y-114249845D01*
X156361110Y-114128524D01*
X155951076Y-114298355D01*
X155646739Y-114575708D01*
X155626157Y-114472235D01*
X155485809Y-114262191D01*
X155275765Y-114121843D01*
X155028000Y-114072560D01*
X153328000Y-114072560D01*
X153080235Y-114121843D01*
X152870191Y-114262191D01*
X152729843Y-114472235D01*
X152685326Y-114696041D01*
X152482690Y-114736348D01*
X152263845Y-114882576D01*
X152263844Y-114882577D01*
X152189951Y-114931951D01*
X152140577Y-115005844D01*
X151802420Y-115344002D01*
X147568674Y-115344002D01*
X147671114Y-114829001D01*
X147559741Y-114269092D01*
X147242578Y-113794424D01*
X146890243Y-113559001D01*
X147242578Y-113323578D01*
X147559741Y-112848910D01*
X147671114Y-112289001D01*
X147559741Y-111729092D01*
X147242578Y-111254424D01*
X146890243Y-111019001D01*
X147242578Y-110783578D01*
X147559741Y-110308910D01*
X147671114Y-109749001D01*
X147559741Y-109189092D01*
X147242578Y-108714424D01*
X147012802Y-108560892D01*
X152736514Y-108560892D01*
X152982817Y-109085358D01*
X153411076Y-109475645D01*
X153821110Y-109645476D01*
X154051000Y-109524155D01*
X154051000Y-108331000D01*
X152857181Y-108331000D01*
X152736514Y-108560892D01*
X147012802Y-108560892D01*
X146890243Y-108479001D01*
X147242578Y-108243578D01*
X147507490Y-107847108D01*
X152736514Y-107847108D01*
X152857181Y-108077000D01*
X154051000Y-108077000D01*
X154051000Y-106883845D01*
X154305000Y-106883845D01*
X154305000Y-108077000D01*
X154325000Y-108077000D01*
X154325000Y-108331000D01*
X154305000Y-108331000D01*
X154305000Y-109524155D01*
X154534890Y-109645476D01*
X154944924Y-109475645D01*
X155373183Y-109085358D01*
X155434157Y-108955522D01*
X155647375Y-109274625D01*
X156138582Y-109602839D01*
X156571744Y-109689000D01*
X156864256Y-109689000D01*
X157297418Y-109602839D01*
X157788625Y-109274625D01*
X157988000Y-108976239D01*
X158187375Y-109274625D01*
X158678582Y-109602839D01*
X159111744Y-109689000D01*
X159404256Y-109689000D01*
X159837418Y-109602839D01*
X160328625Y-109274625D01*
X160340816Y-109256381D01*
X160349843Y-109301765D01*
X160490191Y-109511809D01*
X160700235Y-109652157D01*
X160948000Y-109701440D01*
X162648000Y-109701440D01*
X162895765Y-109652157D01*
X163105809Y-109511809D01*
X163246157Y-109301765D01*
X163295440Y-109054000D01*
X163295440Y-107354000D01*
X163246157Y-107106235D01*
X163105809Y-106896191D01*
X162895765Y-106755843D01*
X162648000Y-106706560D01*
X160948000Y-106706560D01*
X160700235Y-106755843D01*
X160490191Y-106896191D01*
X160349843Y-107106235D01*
X160340816Y-107151619D01*
X160328625Y-107133375D01*
X159837418Y-106805161D01*
X159404256Y-106719000D01*
X159111744Y-106719000D01*
X158678582Y-106805161D01*
X158187375Y-107133375D01*
X157988000Y-107431761D01*
X157788625Y-107133375D01*
X157297418Y-106805161D01*
X156864256Y-106719000D01*
X156571744Y-106719000D01*
X156138582Y-106805161D01*
X155647375Y-107133375D01*
X155434157Y-107452478D01*
X155373183Y-107322642D01*
X154944924Y-106932355D01*
X154534890Y-106762524D01*
X154305000Y-106883845D01*
X154051000Y-106883845D01*
X153821110Y-106762524D01*
X153411076Y-106932355D01*
X152982817Y-107322642D01*
X152736514Y-107847108D01*
X147507490Y-107847108D01*
X147559741Y-107768910D01*
X147671114Y-107209001D01*
X147636018Y-107032562D01*
X152456156Y-102212425D01*
X152530049Y-102163051D01*
X152680560Y-101937797D01*
X152680560Y-101942000D01*
X152729843Y-102189765D01*
X152870191Y-102399809D01*
X153080235Y-102540157D01*
X153328000Y-102589440D01*
X155028000Y-102589440D01*
X155275765Y-102540157D01*
X155485809Y-102399809D01*
X155626157Y-102189765D01*
X155635184Y-102144381D01*
X155647375Y-102162625D01*
X156138582Y-102490839D01*
X156571744Y-102577000D01*
X156864256Y-102577000D01*
X157297418Y-102490839D01*
X157788625Y-102162625D01*
X158001843Y-101843522D01*
X158062817Y-101973358D01*
X158491076Y-102363645D01*
X158901110Y-102533476D01*
X159131000Y-102412155D01*
X159131000Y-101219000D01*
X159111000Y-101219000D01*
X159111000Y-100965000D01*
X159131000Y-100965000D01*
X159131000Y-99771845D01*
X159385000Y-99771845D01*
X159385000Y-100965000D01*
X159405000Y-100965000D01*
X159405000Y-101219000D01*
X159385000Y-101219000D01*
X159385000Y-102412155D01*
X159614890Y-102533476D01*
X160024924Y-102363645D01*
X160453183Y-101973358D01*
X160514157Y-101843522D01*
X160727375Y-102162625D01*
X161218582Y-102490839D01*
X161651744Y-102577000D01*
X161944256Y-102577000D01*
X162377418Y-102490839D01*
X162868625Y-102162625D01*
X163196839Y-101671418D01*
X163312092Y-101092000D01*
X163196839Y-100512582D01*
X162868625Y-100021375D01*
X162377418Y-99693161D01*
X161944256Y-99607000D01*
X161651744Y-99607000D01*
X161218582Y-99693161D01*
X160727375Y-100021375D01*
X160514157Y-100340478D01*
X160453183Y-100210642D01*
X160024924Y-99820355D01*
X159614890Y-99650524D01*
X159385000Y-99771845D01*
X159131000Y-99771845D01*
X158901110Y-99650524D01*
X158491076Y-99820355D01*
X158062817Y-100210642D01*
X158001843Y-100340478D01*
X157788625Y-100021375D01*
X157297418Y-99693161D01*
X156864256Y-99607000D01*
X156571744Y-99607000D01*
X156138582Y-99693161D01*
X155647375Y-100021375D01*
X155635184Y-100039619D01*
X155626157Y-99994235D01*
X155485809Y-99784191D01*
X155275765Y-99643843D01*
X155028000Y-99594560D01*
X153328000Y-99594560D01*
X153080235Y-99643843D01*
X152870191Y-99784191D01*
X152777000Y-99923660D01*
X152777000Y-98711578D01*
X155243769Y-96244810D01*
X155283191Y-96303809D01*
X155493235Y-96444157D01*
X155741000Y-96493440D01*
X157441000Y-96493440D01*
X157688765Y-96444157D01*
X157898809Y-96303809D01*
X158039157Y-96093765D01*
X158048184Y-96048381D01*
X158060375Y-96066625D01*
X158551582Y-96394839D01*
X158984744Y-96481000D01*
X159277256Y-96481000D01*
X159710418Y-96394839D01*
X160201625Y-96066625D01*
X160414843Y-95747522D01*
X160475817Y-95877358D01*
X160904076Y-96267645D01*
X161314110Y-96437476D01*
X161544000Y-96316155D01*
X161544000Y-95123000D01*
X161798000Y-95123000D01*
X161798000Y-96316155D01*
X162027890Y-96437476D01*
X162437924Y-96267645D01*
X162866183Y-95877358D01*
X163112486Y-95352892D01*
X162991819Y-95123000D01*
X161798000Y-95123000D01*
X161544000Y-95123000D01*
X161524000Y-95123000D01*
X161524000Y-94869000D01*
X161544000Y-94869000D01*
X161544000Y-92583000D01*
X161798000Y-92583000D01*
X161798000Y-94869000D01*
X162991819Y-94869000D01*
X163112486Y-94639108D01*
X162866183Y-94114642D01*
X162439729Y-93726000D01*
X162866183Y-93337358D01*
X163112486Y-92812892D01*
X162991819Y-92583000D01*
X161798000Y-92583000D01*
X161544000Y-92583000D01*
X161524000Y-92583000D01*
X161524000Y-92329000D01*
X161544000Y-92329000D01*
X161544000Y-90043000D01*
X161798000Y-90043000D01*
X161798000Y-92329000D01*
X162991819Y-92329000D01*
X163112486Y-92099108D01*
X162866183Y-91574642D01*
X162439729Y-91186000D01*
X162866183Y-90797358D01*
X163112486Y-90272892D01*
X162991819Y-90043000D01*
X161798000Y-90043000D01*
X161544000Y-90043000D01*
X161524000Y-90043000D01*
X161524000Y-89789000D01*
X161544000Y-89789000D01*
X161544000Y-88595845D01*
X161798000Y-88595845D01*
X161798000Y-89789000D01*
X162991819Y-89789000D01*
X163112486Y-89559108D01*
X162866183Y-89034642D01*
X162437924Y-88644355D01*
X162027890Y-88474524D01*
X161798000Y-88595845D01*
X161544000Y-88595845D01*
X161314110Y-88474524D01*
X160904076Y-88644355D01*
X160475817Y-89034642D01*
X160414843Y-89164478D01*
X160201625Y-88845375D01*
X159710418Y-88517161D01*
X159277256Y-88431000D01*
X158984744Y-88431000D01*
X158551582Y-88517161D01*
X158060375Y-88845375D01*
X158048184Y-88863619D01*
X158039157Y-88818235D01*
X157898809Y-88608191D01*
X157688765Y-88467843D01*
X157441000Y-88418560D01*
X155741000Y-88418560D01*
X155493235Y-88467843D01*
X155283191Y-88608191D01*
X155142843Y-88818235D01*
X155098326Y-89042041D01*
X154895690Y-89082348D01*
X154732586Y-89191331D01*
X154676845Y-89228576D01*
X154676844Y-89228577D01*
X154602951Y-89277951D01*
X154553577Y-89351844D01*
X149729000Y-94176422D01*
X149729000Y-92869578D01*
X155243769Y-87354810D01*
X155283191Y-87413809D01*
X155493235Y-87554157D01*
X155741000Y-87603440D01*
X157441000Y-87603440D01*
X157688765Y-87554157D01*
X157898809Y-87413809D01*
X158039157Y-87203765D01*
X158048184Y-87158381D01*
X158060375Y-87176625D01*
X158551582Y-87504839D01*
X158984744Y-87591000D01*
X159277256Y-87591000D01*
X159710418Y-87504839D01*
X160201625Y-87176625D01*
X160414843Y-86857522D01*
X160475817Y-86987358D01*
X160904076Y-87377645D01*
X161314110Y-87547476D01*
X161544000Y-87426155D01*
X161544000Y-86233000D01*
X161798000Y-86233000D01*
X161798000Y-87426155D01*
X162027890Y-87547476D01*
X162437924Y-87377645D01*
X162866183Y-86987358D01*
X163112486Y-86462892D01*
X162991819Y-86233000D01*
X161798000Y-86233000D01*
X161544000Y-86233000D01*
X161524000Y-86233000D01*
X161524000Y-85979000D01*
X161544000Y-85979000D01*
X161544000Y-83693000D01*
X161798000Y-83693000D01*
X161798000Y-85979000D01*
X162991819Y-85979000D01*
X163112486Y-85749108D01*
X162866183Y-85224642D01*
X162439729Y-84836000D01*
X162866183Y-84447358D01*
X163112486Y-83922892D01*
X162991819Y-83693000D01*
X161798000Y-83693000D01*
X161544000Y-83693000D01*
X161524000Y-83693000D01*
X161524000Y-83439000D01*
X161544000Y-83439000D01*
X161544000Y-81153000D01*
X161798000Y-81153000D01*
X161798000Y-83439000D01*
X162991819Y-83439000D01*
X163112486Y-83209108D01*
X162866183Y-82684642D01*
X162439729Y-82296000D01*
X162866183Y-81907358D01*
X163112486Y-81382892D01*
X162991819Y-81153000D01*
X161798000Y-81153000D01*
X161544000Y-81153000D01*
X161524000Y-81153000D01*
X161524000Y-80899000D01*
X161544000Y-80899000D01*
X161544000Y-79705845D01*
X161798000Y-79705845D01*
X161798000Y-80899000D01*
X162991819Y-80899000D01*
X163112486Y-80669108D01*
X162866183Y-80144642D01*
X162437924Y-79754355D01*
X162027890Y-79584524D01*
X161798000Y-79705845D01*
X161544000Y-79705845D01*
X161314110Y-79584524D01*
X160904076Y-79754355D01*
X160475817Y-80144642D01*
X160414843Y-80274478D01*
X160201625Y-79955375D01*
X159710418Y-79627161D01*
X159277256Y-79541000D01*
X158984744Y-79541000D01*
X158551582Y-79627161D01*
X158060375Y-79955375D01*
X158048184Y-79973619D01*
X158039157Y-79928235D01*
X157898809Y-79718191D01*
X157688765Y-79577843D01*
X157441000Y-79528560D01*
X155741000Y-79528560D01*
X155493235Y-79577843D01*
X155283191Y-79718191D01*
X155142843Y-79928235D01*
X155098326Y-80152041D01*
X154895690Y-80192348D01*
X154676845Y-80338576D01*
X154676844Y-80338577D01*
X154602951Y-80387951D01*
X154553577Y-80461844D01*
X152458185Y-82557237D01*
X152576965Y-82226777D01*
X152549778Y-81656546D01*
X152388395Y-81266933D01*
X152528157Y-81057765D01*
X152577440Y-80810000D01*
X152577440Y-79210000D01*
X152528157Y-78962235D01*
X152387809Y-78752191D01*
X152177765Y-78611843D01*
X151930000Y-78562560D01*
X150330000Y-78562560D01*
X150082235Y-78611843D01*
X149872191Y-78752191D01*
X149731843Y-78962235D01*
X149682560Y-79210000D01*
X149682560Y-80810000D01*
X149731843Y-81057765D01*
X149871995Y-81267516D01*
X149683035Y-81793223D01*
X149710222Y-82363454D01*
X149876136Y-82764005D01*
X150122255Y-82838139D01*
X150950395Y-82010000D01*
X150936252Y-81995858D01*
X151115858Y-81816253D01*
X151130000Y-81830395D01*
X151144143Y-81816253D01*
X151323748Y-81995858D01*
X151309605Y-82010000D01*
X151323748Y-82024142D01*
X151144142Y-82203748D01*
X151130000Y-82189605D01*
X150301861Y-83017745D01*
X150375995Y-83263864D01*
X150913223Y-83456965D01*
X151483454Y-83429778D01*
X151657903Y-83357519D01*
X147644847Y-87370575D01*
X147570951Y-87419951D01*
X147563191Y-87431564D01*
X147671114Y-86889001D01*
X147559741Y-86329092D01*
X147242578Y-85854424D01*
X146890243Y-85619001D01*
X147242578Y-85383578D01*
X147559741Y-84908910D01*
X147671114Y-84349001D01*
X147559741Y-83789092D01*
X147242578Y-83314424D01*
X146858893Y-83058054D01*
X147063135Y-82961390D01*
X147439042Y-82546424D01*
X147599905Y-82158040D01*
X147477916Y-81936001D01*
X146335001Y-81936001D01*
X146335001Y-81956001D01*
X146081001Y-81956001D01*
X146081001Y-81936001D01*
X144938086Y-81936001D01*
X144816097Y-82158040D01*
X144976960Y-82546424D01*
X145352867Y-82961390D01*
X145557109Y-83058054D01*
X145173424Y-83314424D01*
X144856261Y-83789092D01*
X144744888Y-84349001D01*
X144856261Y-84908910D01*
X145173424Y-85383578D01*
X145525759Y-85619001D01*
X145173424Y-85854424D01*
X144856261Y-86329092D01*
X144744888Y-86889001D01*
X144856261Y-87448910D01*
X145173424Y-87923578D01*
X145525759Y-88159001D01*
X145173424Y-88394424D01*
X144856261Y-88869092D01*
X144744888Y-89429001D01*
X144856261Y-89988910D01*
X145173424Y-90463578D01*
X145525759Y-90699001D01*
X145173424Y-90934424D01*
X144856261Y-91409092D01*
X144744888Y-91969001D01*
X144856261Y-92528910D01*
X145173424Y-93003578D01*
X145525759Y-93239001D01*
X145173424Y-93474424D01*
X145073480Y-93624001D01*
X143760997Y-93624001D01*
X143433862Y-93296866D01*
X142906439Y-93078400D01*
X142335561Y-93078400D01*
X141808138Y-93296866D01*
X141404466Y-93700538D01*
X141186000Y-94227961D01*
X141186000Y-94798839D01*
X141239728Y-94928549D01*
X141008000Y-94696822D01*
X141008000Y-94227961D01*
X140789534Y-93700538D01*
X140385862Y-93296866D01*
X139858439Y-93078400D01*
X139287561Y-93078400D01*
X138760138Y-93296866D01*
X138356466Y-93700538D01*
X138138000Y-94227961D01*
X138138000Y-94798839D01*
X138356466Y-95326262D01*
X138760138Y-95729934D01*
X139287561Y-95948400D01*
X139756422Y-95948400D01*
X141421177Y-97613156D01*
X141470552Y-97687050D01*
X141544445Y-97736424D01*
X141544446Y-97736425D01*
X141610927Y-97780846D01*
X141763291Y-97882653D01*
X142021436Y-97934001D01*
X142021440Y-97934001D01*
X142108600Y-97951338D01*
X142195760Y-97934001D01*
X145073480Y-97934001D01*
X145173424Y-98083578D01*
X145525759Y-98319001D01*
X145173424Y-98554424D01*
X144856261Y-99029092D01*
X144744888Y-99589001D01*
X144856261Y-100148910D01*
X145173424Y-100623578D01*
X145525759Y-100859001D01*
X145173424Y-101094424D01*
X144856261Y-101569092D01*
X144744888Y-102129001D01*
X144856261Y-102688910D01*
X145173424Y-103163578D01*
X145525759Y-103399001D01*
X145173424Y-103634424D01*
X144856261Y-104109092D01*
X144744888Y-104669001D01*
X144856261Y-105228910D01*
X145173424Y-105703578D01*
X145525759Y-105939001D01*
X145173424Y-106174424D01*
X144856261Y-106649092D01*
X144744888Y-107209001D01*
X144856261Y-107768910D01*
X145173424Y-108243578D01*
X145525759Y-108479001D01*
X145173424Y-108714424D01*
X144856261Y-109189092D01*
X144744888Y-109749001D01*
X144856261Y-110308910D01*
X145173424Y-110783578D01*
X145525759Y-111019001D01*
X145173424Y-111254424D01*
X144856261Y-111729092D01*
X144744888Y-112289001D01*
X144856261Y-112848910D01*
X145173424Y-113323578D01*
X145525759Y-113559001D01*
X145173424Y-113794424D01*
X144856261Y-114269092D01*
X144744888Y-114829001D01*
X144847328Y-115344002D01*
X142040997Y-115344002D01*
X142194740Y-115113909D01*
X142306113Y-114554000D01*
X142194740Y-113994091D01*
X141877577Y-113519423D01*
X141402909Y-113202260D01*
X140984333Y-113119000D01*
X140701667Y-113119000D01*
X140283091Y-113202260D01*
X139808423Y-113519423D01*
X139491260Y-113994091D01*
X139379887Y-114554000D01*
X139491260Y-115113909D01*
X139808423Y-115588577D01*
X139942144Y-115677926D01*
X139940663Y-115685370D01*
X140009348Y-116030679D01*
X140118484Y-116194012D01*
X139428221Y-116194012D01*
X138750726Y-115516517D01*
X139019740Y-115113909D01*
X139131113Y-114554000D01*
X139019740Y-113994091D01*
X138702577Y-113519423D01*
X138227909Y-113202260D01*
X137809333Y-113119000D01*
X137526667Y-113119000D01*
X137108091Y-113202260D01*
X136633423Y-113519423D01*
X136316260Y-113994091D01*
X136204887Y-114554000D01*
X136316260Y-115113909D01*
X136339966Y-115149388D01*
X135921017Y-114730439D01*
X135956113Y-114554000D01*
X135844740Y-113994091D01*
X135527577Y-113519423D01*
X135052909Y-113202260D01*
X134634333Y-113119000D01*
X134351667Y-113119000D01*
X133933091Y-113202260D01*
X133458423Y-113519423D01*
X133141260Y-113994091D01*
X133029887Y-114554000D01*
X132376413Y-114554000D01*
X132319741Y-114269092D01*
X132002578Y-113794424D01*
X131650243Y-113559001D01*
X132002578Y-113323578D01*
X132319741Y-112848910D01*
X132431114Y-112289001D01*
X132319741Y-111729092D01*
X132002578Y-111254424D01*
X131650243Y-111019001D01*
X132002578Y-110783578D01*
X132102522Y-110634001D01*
X134765838Y-110634001D01*
X134852999Y-110651338D01*
X134940160Y-110634001D01*
X134940164Y-110634001D01*
X135198309Y-110582653D01*
X135491048Y-110387050D01*
X135540424Y-110313154D01*
X137484579Y-108369000D01*
X137953439Y-108369000D01*
X138480862Y-108150534D01*
X138884534Y-107746862D01*
X139103000Y-107219439D01*
X139103000Y-106648561D01*
X139007912Y-106418999D01*
X139076421Y-106418999D01*
X139408000Y-106750579D01*
X139408000Y-107219439D01*
X139626466Y-107746862D01*
X140030138Y-108150534D01*
X140557561Y-108369000D01*
X141128439Y-108369000D01*
X141655862Y-108150534D01*
X142059534Y-107746862D01*
X142278000Y-107219439D01*
X142278000Y-106648561D01*
X142059534Y-106121138D01*
X141655862Y-105717466D01*
X141128439Y-105499000D01*
X140659579Y-105499000D01*
X140130424Y-104969845D01*
X140081048Y-104895950D01*
X139788309Y-104700347D01*
X139530164Y-104648999D01*
X139530160Y-104648999D01*
X139442999Y-104631662D01*
X139355838Y-104648999D01*
X132730164Y-104648999D01*
X132643003Y-104631662D01*
X132555842Y-104648999D01*
X132555838Y-104648999D01*
X132430118Y-104674006D01*
X132431114Y-104669001D01*
X132319741Y-104109092D01*
X132002578Y-103634424D01*
X131650243Y-103399001D01*
X132002578Y-103163578D01*
X132319741Y-102688910D01*
X132431114Y-102129001D01*
X132319741Y-101569092D01*
X132002578Y-101094424D01*
X131650243Y-100859001D01*
X132002578Y-100623578D01*
X132319741Y-100148910D01*
X132431114Y-99589001D01*
X132319741Y-99029092D01*
X132002578Y-98554424D01*
X131650243Y-98319001D01*
X132002578Y-98083578D01*
X132319741Y-97608910D01*
X132431114Y-97049001D01*
X132319741Y-96489092D01*
X132002578Y-96014424D01*
X131650243Y-95779001D01*
X132002578Y-95543578D01*
X132319741Y-95068910D01*
X132431114Y-94509001D01*
X132319741Y-93949092D01*
X132002578Y-93474424D01*
X131650243Y-93239001D01*
X132002578Y-93003578D01*
X132319741Y-92528910D01*
X132431114Y-91969001D01*
X132319741Y-91409092D01*
X132002578Y-90934424D01*
X131650243Y-90699001D01*
X132002578Y-90463578D01*
X132319741Y-89988910D01*
X132431114Y-89429001D01*
X132319741Y-88869092D01*
X132002578Y-88394424D01*
X131618893Y-88138054D01*
X131823135Y-88041390D01*
X132199042Y-87626424D01*
X132359905Y-87238040D01*
X132237916Y-87016001D01*
X131095001Y-87016001D01*
X131095001Y-87036001D01*
X130841001Y-87036001D01*
X130841001Y-87016001D01*
X129698086Y-87016001D01*
X129576097Y-87238040D01*
X129736960Y-87626424D01*
X130112867Y-88041390D01*
X130317109Y-88138054D01*
X129933424Y-88394424D01*
X129616261Y-88869092D01*
X129591414Y-88994007D01*
X126384332Y-92201090D01*
X126453000Y-92035310D01*
X126453000Y-91344750D01*
X126294250Y-91186000D01*
X125095000Y-91186000D01*
X125095000Y-92385250D01*
X125253750Y-92544000D01*
X125944309Y-92544000D01*
X126110091Y-92475331D01*
X125186960Y-93398462D01*
X125114256Y-93384000D01*
X124821744Y-93384000D01*
X124388582Y-93470161D01*
X123897375Y-93798375D01*
X123569161Y-94289582D01*
X123453908Y-94869000D01*
X123569161Y-95448418D01*
X123897375Y-95939625D01*
X124195761Y-96139000D01*
X123897375Y-96338375D01*
X123569161Y-96829582D01*
X123453908Y-97409000D01*
X123569161Y-97988418D01*
X123897375Y-98479625D01*
X123915619Y-98491816D01*
X123870235Y-98500843D01*
X123660191Y-98641191D01*
X123519843Y-98851235D01*
X123470560Y-99099000D01*
X123470560Y-100799000D01*
X123519843Y-101046765D01*
X123660191Y-101256809D01*
X123870235Y-101397157D01*
X124118000Y-101446440D01*
X125818000Y-101446440D01*
X126065765Y-101397157D01*
X126103434Y-101371987D01*
X125186960Y-102288462D01*
X125114256Y-102274000D01*
X124821744Y-102274000D01*
X124388582Y-102360161D01*
X123897375Y-102688375D01*
X123569161Y-103179582D01*
X123453908Y-103759000D01*
X123569161Y-104338418D01*
X123897375Y-104829625D01*
X124195761Y-105029000D01*
X123897375Y-105228375D01*
X123569161Y-105719582D01*
X123453908Y-106299000D01*
X123569161Y-106878418D01*
X123897375Y-107369625D01*
X123915619Y-107381816D01*
X123870235Y-107390843D01*
X123660191Y-107531191D01*
X123519843Y-107741235D01*
X123470560Y-107989000D01*
X123470560Y-109689000D01*
X123519843Y-109936765D01*
X123660191Y-110146809D01*
X123870235Y-110287157D01*
X124118000Y-110336440D01*
X125818000Y-110336440D01*
X126065765Y-110287157D01*
X126275809Y-110146809D01*
X126416157Y-109936765D01*
X126460674Y-109712959D01*
X126663310Y-109672652D01*
X126956049Y-109477049D01*
X127005425Y-109403153D01*
X128683001Y-107725578D01*
X128683000Y-110937421D01*
X126315231Y-113305190D01*
X126275809Y-113246191D01*
X126065765Y-113105843D01*
X125818000Y-113056560D01*
X124118000Y-113056560D01*
X123870235Y-113105843D01*
X123660191Y-113246191D01*
X123519843Y-113456235D01*
X123510816Y-113501619D01*
X123498625Y-113483375D01*
X123007418Y-113155161D01*
X122574256Y-113069000D01*
X122281744Y-113069000D01*
X121848582Y-113155161D01*
X121357375Y-113483375D01*
X121144157Y-113802478D01*
X121083183Y-113672642D01*
X120654924Y-113282355D01*
X120244890Y-113112524D01*
X120015000Y-113233845D01*
X119761000Y-113233845D01*
X119531110Y-113112524D01*
X119121076Y-113282355D01*
X118692817Y-113672642D01*
X118446514Y-114197108D01*
X109710000Y-114197108D01*
X109710000Y-91344750D01*
X123483000Y-91344750D01*
X123483000Y-92035310D01*
X123579673Y-92268699D01*
X123758302Y-92447327D01*
X123991691Y-92544000D01*
X124682250Y-92544000D01*
X124841000Y-92385250D01*
X124841000Y-91186000D01*
X123641750Y-91186000D01*
X123483000Y-91344750D01*
X109710000Y-91344750D01*
X109710000Y-90082690D01*
X123483000Y-90082690D01*
X123483000Y-90773250D01*
X123641750Y-90932000D01*
X124841000Y-90932000D01*
X124841000Y-89732750D01*
X125095000Y-89732750D01*
X125095000Y-90932000D01*
X126294250Y-90932000D01*
X126453000Y-90773250D01*
X126453000Y-90082690D01*
X126356327Y-89849301D01*
X126177698Y-89670673D01*
X125944309Y-89574000D01*
X125253750Y-89574000D01*
X125095000Y-89732750D01*
X124841000Y-89732750D01*
X124682250Y-89574000D01*
X123991691Y-89574000D01*
X123758302Y-89670673D01*
X123579673Y-89849301D01*
X123483000Y-90082690D01*
X109710000Y-90082690D01*
X109710000Y-86893400D01*
X138109887Y-86893400D01*
X138221260Y-87453309D01*
X138538423Y-87927977D01*
X139013091Y-88245140D01*
X139431667Y-88328400D01*
X139714333Y-88328400D01*
X140132909Y-88245140D01*
X140607577Y-87927977D01*
X140924740Y-87453309D01*
X141036113Y-86893400D01*
X141157887Y-86893400D01*
X141269260Y-87453309D01*
X141586423Y-87927977D01*
X142061091Y-88245140D01*
X142479667Y-88328400D01*
X142762333Y-88328400D01*
X143180909Y-88245140D01*
X143655577Y-87927977D01*
X143972740Y-87453309D01*
X144084113Y-86893400D01*
X143972740Y-86333491D01*
X143655577Y-85858823D01*
X143180909Y-85541660D01*
X142762333Y-85458400D01*
X142479667Y-85458400D01*
X142061091Y-85541660D01*
X141586423Y-85858823D01*
X141269260Y-86333491D01*
X141157887Y-86893400D01*
X141036113Y-86893400D01*
X140924740Y-86333491D01*
X140607577Y-85858823D01*
X140132909Y-85541660D01*
X139714333Y-85458400D01*
X139431667Y-85458400D01*
X139013091Y-85541660D01*
X138538423Y-85858823D01*
X138221260Y-86333491D01*
X138109887Y-86893400D01*
X109710000Y-86893400D01*
X109710000Y-83859000D01*
X123470560Y-83859000D01*
X123470560Y-85559000D01*
X123519843Y-85806765D01*
X123660191Y-86016809D01*
X123870235Y-86157157D01*
X124118000Y-86206440D01*
X125818000Y-86206440D01*
X126065765Y-86157157D01*
X126275809Y-86016809D01*
X126416157Y-85806765D01*
X126465440Y-85559000D01*
X126465440Y-83859000D01*
X126416157Y-83611235D01*
X126275809Y-83401191D01*
X126065765Y-83260843D01*
X125962292Y-83240261D01*
X126239645Y-82935924D01*
X126409476Y-82525890D01*
X126288155Y-82296000D01*
X125095000Y-82296000D01*
X125095000Y-82316000D01*
X124841000Y-82316000D01*
X124841000Y-82296000D01*
X123647845Y-82296000D01*
X123526524Y-82525890D01*
X123696355Y-82935924D01*
X123973708Y-83240261D01*
X123870235Y-83260843D01*
X123660191Y-83401191D01*
X123519843Y-83611235D01*
X123470560Y-83859000D01*
X109710000Y-83859000D01*
X109710000Y-77089000D01*
X123453908Y-77089000D01*
X123569161Y-77668418D01*
X123897375Y-78159625D01*
X124195761Y-78359000D01*
X123897375Y-78558375D01*
X123569161Y-79049582D01*
X123453908Y-79629000D01*
X123569161Y-80208418D01*
X123897375Y-80699625D01*
X124216478Y-80912843D01*
X124086642Y-80973817D01*
X123696355Y-81402076D01*
X123526524Y-81812110D01*
X123647845Y-82042000D01*
X124841000Y-82042000D01*
X124841000Y-82022000D01*
X125095000Y-82022000D01*
X125095000Y-82042000D01*
X126288155Y-82042000D01*
X126409476Y-81812110D01*
X126239645Y-81402076D01*
X125849358Y-80973817D01*
X125719522Y-80912843D01*
X126038625Y-80699625D01*
X126096873Y-80612451D01*
X127857578Y-82373157D01*
X127906952Y-82447050D01*
X127980845Y-82496424D01*
X127980846Y-82496425D01*
X128055675Y-82546424D01*
X128199691Y-82642653D01*
X128457836Y-82694001D01*
X128457840Y-82694001D01*
X128545001Y-82711338D01*
X128632162Y-82694001D01*
X129833480Y-82694001D01*
X129933424Y-82843578D01*
X130285759Y-83079001D01*
X129933424Y-83314424D01*
X129616261Y-83789092D01*
X129504888Y-84349001D01*
X129616261Y-84908910D01*
X129933424Y-85383578D01*
X130317109Y-85639948D01*
X130112867Y-85736612D01*
X129736960Y-86151578D01*
X129576097Y-86539962D01*
X129698086Y-86762001D01*
X130841001Y-86762001D01*
X130841001Y-86742001D01*
X131095001Y-86742001D01*
X131095001Y-86762001D01*
X132237916Y-86762001D01*
X132359905Y-86539962D01*
X132199042Y-86151578D01*
X131823135Y-85736612D01*
X131618893Y-85639948D01*
X132002578Y-85383578D01*
X132319741Y-84908910D01*
X132431114Y-84349001D01*
X132319741Y-83789092D01*
X132002578Y-83314424D01*
X131650243Y-83079001D01*
X132002578Y-82843578D01*
X132319741Y-82368910D01*
X132431114Y-81809001D01*
X132319741Y-81249092D01*
X132002578Y-80774424D01*
X131881895Y-80693786D01*
X132015766Y-80667158D01*
X132225810Y-80526810D01*
X132245205Y-80497783D01*
X133608000Y-81860579D01*
X133608001Y-83490461D01*
X133608000Y-83490466D01*
X133608000Y-83574479D01*
X133458423Y-83674423D01*
X133141260Y-84149091D01*
X133029887Y-84709000D01*
X133141260Y-85268909D01*
X133458423Y-85743577D01*
X133933091Y-86060740D01*
X134351667Y-86144000D01*
X134634333Y-86144000D01*
X135052909Y-86060740D01*
X135527577Y-85743577D01*
X135545505Y-85716745D01*
X136839861Y-85716745D01*
X136913995Y-85962864D01*
X137451223Y-86155965D01*
X138021454Y-86128778D01*
X138422005Y-85962864D01*
X138496139Y-85716745D01*
X137668000Y-84888605D01*
X136839861Y-85716745D01*
X135545505Y-85716745D01*
X135844740Y-85268909D01*
X135956113Y-84709000D01*
X135912994Y-84492223D01*
X136221035Y-84492223D01*
X136248222Y-85062454D01*
X136414136Y-85463005D01*
X136660255Y-85537139D01*
X137488395Y-84709000D01*
X137847605Y-84709000D01*
X138675745Y-85537139D01*
X138921864Y-85463005D01*
X139114965Y-84925777D01*
X139087778Y-84355546D01*
X138921864Y-83954995D01*
X138675745Y-83880861D01*
X137847605Y-84709000D01*
X137488395Y-84709000D01*
X136660255Y-83880861D01*
X136414136Y-83954995D01*
X136221035Y-84492223D01*
X135912994Y-84492223D01*
X135844740Y-84149091D01*
X135545506Y-83701255D01*
X136839861Y-83701255D01*
X137668000Y-84529395D01*
X138496139Y-83701255D01*
X138422005Y-83455136D01*
X137884777Y-83262035D01*
X137314546Y-83289222D01*
X136913995Y-83455136D01*
X136839861Y-83701255D01*
X135545506Y-83701255D01*
X135527577Y-83674423D01*
X135378000Y-83574479D01*
X135378000Y-81581161D01*
X135395337Y-81494000D01*
X135378000Y-81406839D01*
X135378000Y-81406835D01*
X135326652Y-81148690D01*
X135131049Y-80855951D01*
X135057156Y-80806577D01*
X133519580Y-79269001D01*
X144744888Y-79269001D01*
X144856261Y-79828910D01*
X145173424Y-80303578D01*
X145557109Y-80559948D01*
X145352867Y-80656612D01*
X144976960Y-81071578D01*
X144816097Y-81459962D01*
X144938086Y-81682001D01*
X146081001Y-81682001D01*
X146081001Y-81662001D01*
X146335001Y-81662001D01*
X146335001Y-81682001D01*
X147477916Y-81682001D01*
X147599905Y-81459962D01*
X147439042Y-81071578D01*
X147063135Y-80656612D01*
X146858893Y-80559948D01*
X147242578Y-80303578D01*
X147559741Y-79828910D01*
X147671114Y-79269001D01*
X147559741Y-78709092D01*
X147242578Y-78234424D01*
X146767910Y-77917261D01*
X146349334Y-77834001D01*
X146066668Y-77834001D01*
X145648092Y-77917261D01*
X145173424Y-78234424D01*
X144856261Y-78709092D01*
X144744888Y-79269001D01*
X133519580Y-79269001D01*
X132955426Y-78704848D01*
X132906050Y-78630952D01*
X132613311Y-78435349D01*
X132400320Y-78392983D01*
X132366158Y-78221236D01*
X132225810Y-78011192D01*
X132170149Y-77974000D01*
X133348604Y-77974000D01*
X133680138Y-78305534D01*
X134207561Y-78524000D01*
X134778439Y-78524000D01*
X135305862Y-78305534D01*
X135637396Y-77974000D01*
X136533479Y-77974000D01*
X136633423Y-78123577D01*
X137108091Y-78440740D01*
X137526667Y-78524000D01*
X137809333Y-78524000D01*
X138227909Y-78440740D01*
X138702577Y-78123577D01*
X139019740Y-77648909D01*
X139131113Y-77089000D01*
X139019740Y-76529091D01*
X138702577Y-76054423D01*
X138227909Y-75737260D01*
X137809333Y-75654000D01*
X137526667Y-75654000D01*
X137108091Y-75737260D01*
X136633423Y-76054423D01*
X136533479Y-76204000D01*
X135637396Y-76204000D01*
X135305862Y-75872466D01*
X134778439Y-75654000D01*
X134207561Y-75654000D01*
X133680138Y-75872466D01*
X133348604Y-76204000D01*
X126162656Y-76204000D01*
X126038625Y-76018375D01*
X125547418Y-75690161D01*
X125114256Y-75604000D01*
X124821744Y-75604000D01*
X124388582Y-75690161D01*
X123897375Y-76018375D01*
X123569161Y-76509582D01*
X123453908Y-77089000D01*
X109710000Y-77089000D01*
X109710000Y-74338571D01*
X117357034Y-74338571D01*
X117547328Y-74683319D01*
X118428576Y-75035015D01*
X119377332Y-75022701D01*
X120196672Y-74683319D01*
X120386966Y-74338571D01*
X118872000Y-72823605D01*
X117357034Y-74338571D01*
X109710000Y-74338571D01*
X109710000Y-72200576D01*
X116480985Y-72200576D01*
X116493299Y-73149332D01*
X116832681Y-73968672D01*
X117177429Y-74158966D01*
X118692395Y-72644000D01*
X119051605Y-72644000D01*
X120566571Y-74158966D01*
X120911319Y-73968672D01*
X121263015Y-73087424D01*
X121250701Y-72138668D01*
X120911319Y-71319328D01*
X120566571Y-71129034D01*
X119051605Y-72644000D01*
X118692395Y-72644000D01*
X117177429Y-71129034D01*
X116832681Y-71319328D01*
X116480985Y-72200576D01*
X109710000Y-72200576D01*
X109710000Y-70949429D01*
X117357034Y-70949429D01*
X118872000Y-72464395D01*
X120256650Y-71079745D01*
X143316861Y-71079745D01*
X143390995Y-71325864D01*
X143928223Y-71518965D01*
X144498454Y-71491778D01*
X144899005Y-71325864D01*
X144973139Y-71079745D01*
X144145000Y-70251605D01*
X143316861Y-71079745D01*
X120256650Y-71079745D01*
X120386966Y-70949429D01*
X120196672Y-70604681D01*
X119315424Y-70252985D01*
X118366668Y-70265299D01*
X117547328Y-70604681D01*
X117357034Y-70949429D01*
X109710000Y-70949429D01*
X109710000Y-65813940D01*
X116474500Y-65813940D01*
X116474500Y-69314060D01*
X116523783Y-69561825D01*
X116664131Y-69771869D01*
X116874175Y-69912217D01*
X117121940Y-69961500D01*
X120622060Y-69961500D01*
X120869825Y-69912217D01*
X121079869Y-69771869D01*
X121220217Y-69561825D01*
X121269500Y-69314060D01*
X121269500Y-68699000D01*
X122940932Y-68699000D01*
X122989676Y-68944054D01*
X123483655Y-69683345D01*
X124222946Y-70177324D01*
X124874872Y-70307000D01*
X125315128Y-70307000D01*
X125967054Y-70177324D01*
X126706345Y-69683345D01*
X127200324Y-68944054D01*
X127373786Y-68072000D01*
X127200324Y-67199946D01*
X126713926Y-66472000D01*
X135547560Y-66472000D01*
X135547560Y-69672000D01*
X135596843Y-69919765D01*
X135737191Y-70129809D01*
X135947235Y-70270157D01*
X136195000Y-70319440D01*
X139395000Y-70319440D01*
X139642765Y-70270157D01*
X139852809Y-70129809D01*
X139993157Y-69919765D01*
X140042440Y-69672000D01*
X140042440Y-69207000D01*
X142805132Y-69207000D01*
X142886995Y-69329516D01*
X142698035Y-69855223D01*
X142725222Y-70425454D01*
X142891136Y-70826005D01*
X143137255Y-70900139D01*
X143965395Y-70072000D01*
X143951252Y-70057858D01*
X144130858Y-69878253D01*
X144145000Y-69892395D01*
X144159143Y-69878253D01*
X144338748Y-70057858D01*
X144324605Y-70072000D01*
X145152745Y-70900139D01*
X145398864Y-70826005D01*
X145591965Y-70288777D01*
X145564778Y-69718546D01*
X145403395Y-69328933D01*
X145484868Y-69207000D01*
X146897369Y-69207000D01*
X152324060Y-74633692D01*
X152324060Y-75676000D01*
X152373343Y-75923765D01*
X152513691Y-76133809D01*
X152723735Y-76274157D01*
X152971500Y-76323440D01*
X154876500Y-76323440D01*
X155124265Y-76274157D01*
X155334309Y-76133809D01*
X155471255Y-75928857D01*
X155597076Y-76051973D01*
X156091020Y-76266563D01*
X156337000Y-76146594D01*
X156337000Y-74803000D01*
X156317000Y-74803000D01*
X156317000Y-74549000D01*
X156337000Y-74549000D01*
X156337000Y-73205406D01*
X156591000Y-73205406D01*
X156591000Y-74549000D01*
X156611000Y-74549000D01*
X156611000Y-74803000D01*
X156591000Y-74803000D01*
X156591000Y-76146594D01*
X156836980Y-76266563D01*
X157330924Y-76051973D01*
X157724841Y-75666526D01*
X157859477Y-75868023D01*
X158384590Y-76218891D01*
X159004000Y-76342100D01*
X159623411Y-76218891D01*
X160148523Y-75868023D01*
X160499391Y-75342910D01*
X160591500Y-74879849D01*
X160591500Y-74472150D01*
X160499391Y-74009089D01*
X160148523Y-73483977D01*
X159623410Y-73133109D01*
X159004000Y-73009900D01*
X158384589Y-73133109D01*
X157859477Y-73483977D01*
X157724841Y-73685474D01*
X157330924Y-73300027D01*
X156836980Y-73085437D01*
X156591000Y-73205406D01*
X156337000Y-73205406D01*
X156091020Y-73085437D01*
X155597076Y-73300027D01*
X155471255Y-73423143D01*
X155334309Y-73218191D01*
X155124265Y-73077843D01*
X154876500Y-73028560D01*
X153929192Y-73028560D01*
X148249113Y-67348482D01*
X148185789Y-67253711D01*
X147810355Y-67002854D01*
X147479283Y-66937000D01*
X147367500Y-66914765D01*
X147255717Y-66937000D01*
X145484868Y-66937000D01*
X145402809Y-66814191D01*
X145192765Y-66673843D01*
X144945000Y-66624560D01*
X143345000Y-66624560D01*
X143097235Y-66673843D01*
X142887191Y-66814191D01*
X142805132Y-66937000D01*
X140042440Y-66937000D01*
X140042440Y-66472000D01*
X139993157Y-66224235D01*
X139852809Y-66014191D01*
X139642765Y-65873843D01*
X139395000Y-65824560D01*
X136195000Y-65824560D01*
X135947235Y-65873843D01*
X135737191Y-66014191D01*
X135596843Y-66224235D01*
X135547560Y-66472000D01*
X126713926Y-66472000D01*
X126706345Y-66460655D01*
X125967054Y-65966676D01*
X125315128Y-65837000D01*
X124874872Y-65837000D01*
X124222946Y-65966676D01*
X123531030Y-66429000D01*
X121269500Y-66429000D01*
X121269500Y-65813940D01*
X121220217Y-65566175D01*
X121079869Y-65356131D01*
X120869825Y-65215783D01*
X120622060Y-65166500D01*
X117121940Y-65166500D01*
X116874175Y-65215783D01*
X116664131Y-65356131D01*
X116523783Y-65566175D01*
X116474500Y-65813940D01*
X109710000Y-65813940D01*
X109710000Y-59592040D01*
X109770667Y-59592040D01*
X109770667Y-60407960D01*
X109973578Y-61198245D01*
X110366650Y-61913241D01*
X110925185Y-62508021D01*
X111614088Y-62945212D01*
X112390074Y-63197345D01*
X113204383Y-63248577D01*
X114005850Y-63095689D01*
X114744116Y-62748287D01*
X115372793Y-62228201D01*
X115852378Y-61568108D01*
X116152738Y-60809486D01*
X116255000Y-60000000D01*
X116203463Y-59592040D01*
X165770667Y-59592040D01*
X165770667Y-60407960D01*
X165973578Y-61198245D01*
X166366650Y-61913241D01*
X166925185Y-62508021D01*
X167614088Y-62945212D01*
X168390074Y-63197345D01*
X169204383Y-63248577D01*
X170005850Y-63095689D01*
X170744116Y-62748287D01*
X171372793Y-62228201D01*
X171852378Y-61568108D01*
X172152738Y-60809486D01*
X172255000Y-60000000D01*
X172152738Y-59190514D01*
X171852378Y-58431892D01*
X171372793Y-57771799D01*
X170744116Y-57251713D01*
X170005850Y-56904311D01*
X169204383Y-56751423D01*
X168390074Y-56802655D01*
X167614088Y-57054788D01*
X166925185Y-57491979D01*
X166366650Y-58086759D01*
X165973578Y-58801755D01*
X165770667Y-59592040D01*
X116203463Y-59592040D01*
X116152738Y-59190514D01*
X115852378Y-58431892D01*
X115372793Y-57771799D01*
X114744116Y-57251713D01*
X114005850Y-56904311D01*
X113204383Y-56751423D01*
X112390074Y-56802655D01*
X111614088Y-57054788D01*
X110925185Y-57491979D01*
X110366650Y-58086759D01*
X109973578Y-58801755D01*
X109770667Y-59592040D01*
X109710000Y-59592040D01*
X109710000Y-56710000D01*
X172290001Y-56710000D01*
X172290000Y-127290000D01*
X172290000Y-127290000D01*
G37*
X172290000Y-127290000D02*
X109710000Y-127290000D01*
X109710000Y-123592040D01*
X109770667Y-123592040D01*
X109770667Y-124407960D01*
X109973578Y-125198245D01*
X110366650Y-125913241D01*
X110925185Y-126508021D01*
X111614088Y-126945212D01*
X112390074Y-127197345D01*
X113204383Y-127248577D01*
X114005850Y-127095689D01*
X114744116Y-126748287D01*
X115372793Y-126228201D01*
X115852378Y-125568108D01*
X116152738Y-124809486D01*
X116255000Y-124000000D01*
X116203463Y-123592040D01*
X165770667Y-123592040D01*
X165770667Y-124407960D01*
X165973578Y-125198245D01*
X166366650Y-125913241D01*
X166925185Y-126508021D01*
X167614088Y-126945212D01*
X168390074Y-127197345D01*
X169204383Y-127248577D01*
X170005850Y-127095689D01*
X170744116Y-126748287D01*
X171372793Y-126228201D01*
X171852378Y-125568108D01*
X172152738Y-124809486D01*
X172255000Y-124000000D01*
X172152738Y-123190514D01*
X171852378Y-122431892D01*
X171372793Y-121771799D01*
X170744116Y-121251713D01*
X170005850Y-120904311D01*
X169204383Y-120751423D01*
X168390074Y-120802655D01*
X167614088Y-121054788D01*
X166925185Y-121491979D01*
X166366650Y-122086759D01*
X165973578Y-122801755D01*
X165770667Y-123592040D01*
X116203463Y-123592040D01*
X116152738Y-123190514D01*
X115852378Y-122431892D01*
X115372793Y-121771799D01*
X114744116Y-121251713D01*
X114005850Y-120904311D01*
X113204383Y-120751423D01*
X112390074Y-120802655D01*
X111614088Y-121054788D01*
X110925185Y-121491979D01*
X110366650Y-122086759D01*
X109973578Y-122801755D01*
X109770667Y-123592040D01*
X109710000Y-123592040D01*
X109710000Y-114910892D01*
X118446514Y-114910892D01*
X118692817Y-115435358D01*
X119121076Y-115825645D01*
X119531110Y-115995476D01*
X119761000Y-115874155D01*
X119761000Y-114681000D01*
X118567181Y-114681000D01*
X118446514Y-114910892D01*
X109710000Y-114910892D01*
X109710000Y-114197108D01*
X118446514Y-114197108D01*
X118567181Y-114427000D01*
X119761000Y-114427000D01*
X119761000Y-113233845D01*
X120015000Y-113233845D01*
X120015000Y-114427000D01*
X120035000Y-114427000D01*
X120035000Y-114681000D01*
X120015000Y-114681000D01*
X120015000Y-115874155D01*
X120244890Y-115995476D01*
X120654924Y-115825645D01*
X121083183Y-115435358D01*
X121144157Y-115305522D01*
X121357375Y-115624625D01*
X121848582Y-115952839D01*
X122281744Y-116039000D01*
X122574256Y-116039000D01*
X123007418Y-115952839D01*
X123498625Y-115624625D01*
X123510816Y-115606381D01*
X123519843Y-115651765D01*
X123660191Y-115861809D01*
X123870235Y-116002157D01*
X124118000Y-116051440D01*
X125818000Y-116051440D01*
X126065765Y-116002157D01*
X126275809Y-115861809D01*
X126416157Y-115651765D01*
X126460674Y-115427959D01*
X126663310Y-115387652D01*
X126956049Y-115192049D01*
X127005425Y-115118153D01*
X129559587Y-112563992D01*
X129616261Y-112848910D01*
X129933424Y-113323578D01*
X130285759Y-113559001D01*
X129933424Y-113794424D01*
X129616261Y-114269092D01*
X129504888Y-114829001D01*
X129616261Y-115388910D01*
X129933424Y-115863578D01*
X130408092Y-116180741D01*
X130826668Y-116264001D01*
X131109334Y-116264001D01*
X131527910Y-116180741D01*
X132002578Y-115863578D01*
X132319741Y-115388910D01*
X132431114Y-114829001D01*
X132376413Y-114554000D01*
X133029887Y-114554000D01*
X133141260Y-115113909D01*
X133458423Y-115588577D01*
X133933091Y-115905740D01*
X134351667Y-115989000D01*
X134634333Y-115989000D01*
X134669439Y-115982017D01*
X137330599Y-118643178D01*
X137379973Y-118717071D01*
X137453866Y-118766445D01*
X137453867Y-118766446D01*
X137672712Y-118912674D01*
X137930857Y-118964022D01*
X137930861Y-118964022D01*
X138018022Y-118981359D01*
X138105183Y-118964022D01*
X159201817Y-118964022D01*
X159288978Y-118981359D01*
X159376139Y-118964022D01*
X159376143Y-118964022D01*
X159634288Y-118912674D01*
X159927027Y-118717071D01*
X159976403Y-118643175D01*
X161579041Y-117040538D01*
X161651744Y-117055000D01*
X161944256Y-117055000D01*
X162377418Y-116968839D01*
X162868625Y-116640625D01*
X163196839Y-116149418D01*
X163312092Y-115570000D01*
X163196839Y-114990582D01*
X162868625Y-114499375D01*
X162377418Y-114171161D01*
X161944256Y-114085000D01*
X161651744Y-114085000D01*
X161218582Y-114171161D01*
X160727375Y-114499375D01*
X160528000Y-114797761D01*
X160328625Y-114499375D01*
X159837418Y-114171161D01*
X159404256Y-114085000D01*
X159111744Y-114085000D01*
X158678582Y-114171161D01*
X158187375Y-114499375D01*
X157974157Y-114818478D01*
X157913183Y-114688642D01*
X157484924Y-114298355D01*
X157074890Y-114128524D01*
X156845000Y-114249845D01*
X156845000Y-115443000D01*
X156865000Y-115443000D01*
X156865000Y-115697000D01*
X156845000Y-115697000D01*
X156845000Y-115717000D01*
X156591000Y-115717000D01*
X156591000Y-115697000D01*
X156571000Y-115697000D01*
X156571000Y-115443000D01*
X156591000Y-115443000D01*
X156591000Y-114249845D01*
X156361110Y-114128524D01*
X155951076Y-114298355D01*
X155646739Y-114575708D01*
X155626157Y-114472235D01*
X155485809Y-114262191D01*
X155275765Y-114121843D01*
X155028000Y-114072560D01*
X153328000Y-114072560D01*
X153080235Y-114121843D01*
X152870191Y-114262191D01*
X152729843Y-114472235D01*
X152685326Y-114696041D01*
X152482690Y-114736348D01*
X152263845Y-114882576D01*
X152263844Y-114882577D01*
X152189951Y-114931951D01*
X152140577Y-115005844D01*
X151802420Y-115344002D01*
X147568674Y-115344002D01*
X147671114Y-114829001D01*
X147559741Y-114269092D01*
X147242578Y-113794424D01*
X146890243Y-113559001D01*
X147242578Y-113323578D01*
X147559741Y-112848910D01*
X147671114Y-112289001D01*
X147559741Y-111729092D01*
X147242578Y-111254424D01*
X146890243Y-111019001D01*
X147242578Y-110783578D01*
X147559741Y-110308910D01*
X147671114Y-109749001D01*
X147559741Y-109189092D01*
X147242578Y-108714424D01*
X147012802Y-108560892D01*
X152736514Y-108560892D01*
X152982817Y-109085358D01*
X153411076Y-109475645D01*
X153821110Y-109645476D01*
X154051000Y-109524155D01*
X154051000Y-108331000D01*
X152857181Y-108331000D01*
X152736514Y-108560892D01*
X147012802Y-108560892D01*
X146890243Y-108479001D01*
X147242578Y-108243578D01*
X147507490Y-107847108D01*
X152736514Y-107847108D01*
X152857181Y-108077000D01*
X154051000Y-108077000D01*
X154051000Y-106883845D01*
X154305000Y-106883845D01*
X154305000Y-108077000D01*
X154325000Y-108077000D01*
X154325000Y-108331000D01*
X154305000Y-108331000D01*
X154305000Y-109524155D01*
X154534890Y-109645476D01*
X154944924Y-109475645D01*
X155373183Y-109085358D01*
X155434157Y-108955522D01*
X155647375Y-109274625D01*
X156138582Y-109602839D01*
X156571744Y-109689000D01*
X156864256Y-109689000D01*
X157297418Y-109602839D01*
X157788625Y-109274625D01*
X157988000Y-108976239D01*
X158187375Y-109274625D01*
X158678582Y-109602839D01*
X159111744Y-109689000D01*
X159404256Y-109689000D01*
X159837418Y-109602839D01*
X160328625Y-109274625D01*
X160340816Y-109256381D01*
X160349843Y-109301765D01*
X160490191Y-109511809D01*
X160700235Y-109652157D01*
X160948000Y-109701440D01*
X162648000Y-109701440D01*
X162895765Y-109652157D01*
X163105809Y-109511809D01*
X163246157Y-109301765D01*
X163295440Y-109054000D01*
X163295440Y-107354000D01*
X163246157Y-107106235D01*
X163105809Y-106896191D01*
X162895765Y-106755843D01*
X162648000Y-106706560D01*
X160948000Y-106706560D01*
X160700235Y-106755843D01*
X160490191Y-106896191D01*
X160349843Y-107106235D01*
X160340816Y-107151619D01*
X160328625Y-107133375D01*
X159837418Y-106805161D01*
X159404256Y-106719000D01*
X159111744Y-106719000D01*
X158678582Y-106805161D01*
X158187375Y-107133375D01*
X157988000Y-107431761D01*
X157788625Y-107133375D01*
X157297418Y-106805161D01*
X156864256Y-106719000D01*
X156571744Y-106719000D01*
X156138582Y-106805161D01*
X155647375Y-107133375D01*
X155434157Y-107452478D01*
X155373183Y-107322642D01*
X154944924Y-106932355D01*
X154534890Y-106762524D01*
X154305000Y-106883845D01*
X154051000Y-106883845D01*
X153821110Y-106762524D01*
X153411076Y-106932355D01*
X152982817Y-107322642D01*
X152736514Y-107847108D01*
X147507490Y-107847108D01*
X147559741Y-107768910D01*
X147671114Y-107209001D01*
X147636018Y-107032562D01*
X152456156Y-102212425D01*
X152530049Y-102163051D01*
X152680560Y-101937797D01*
X152680560Y-101942000D01*
X152729843Y-102189765D01*
X152870191Y-102399809D01*
X153080235Y-102540157D01*
X153328000Y-102589440D01*
X155028000Y-102589440D01*
X155275765Y-102540157D01*
X155485809Y-102399809D01*
X155626157Y-102189765D01*
X155635184Y-102144381D01*
X155647375Y-102162625D01*
X156138582Y-102490839D01*
X156571744Y-102577000D01*
X156864256Y-102577000D01*
X157297418Y-102490839D01*
X157788625Y-102162625D01*
X158001843Y-101843522D01*
X158062817Y-101973358D01*
X158491076Y-102363645D01*
X158901110Y-102533476D01*
X159131000Y-102412155D01*
X159131000Y-101219000D01*
X159111000Y-101219000D01*
X159111000Y-100965000D01*
X159131000Y-100965000D01*
X159131000Y-99771845D01*
X159385000Y-99771845D01*
X159385000Y-100965000D01*
X159405000Y-100965000D01*
X159405000Y-101219000D01*
X159385000Y-101219000D01*
X159385000Y-102412155D01*
X159614890Y-102533476D01*
X160024924Y-102363645D01*
X160453183Y-101973358D01*
X160514157Y-101843522D01*
X160727375Y-102162625D01*
X161218582Y-102490839D01*
X161651744Y-102577000D01*
X161944256Y-102577000D01*
X162377418Y-102490839D01*
X162868625Y-102162625D01*
X163196839Y-101671418D01*
X163312092Y-101092000D01*
X163196839Y-100512582D01*
X162868625Y-100021375D01*
X162377418Y-99693161D01*
X161944256Y-99607000D01*
X161651744Y-99607000D01*
X161218582Y-99693161D01*
X160727375Y-100021375D01*
X160514157Y-100340478D01*
X160453183Y-100210642D01*
X160024924Y-99820355D01*
X159614890Y-99650524D01*
X159385000Y-99771845D01*
X159131000Y-99771845D01*
X158901110Y-99650524D01*
X158491076Y-99820355D01*
X158062817Y-100210642D01*
X158001843Y-100340478D01*
X157788625Y-100021375D01*
X157297418Y-99693161D01*
X156864256Y-99607000D01*
X156571744Y-99607000D01*
X156138582Y-99693161D01*
X155647375Y-100021375D01*
X155635184Y-100039619D01*
X155626157Y-99994235D01*
X155485809Y-99784191D01*
X155275765Y-99643843D01*
X155028000Y-99594560D01*
X153328000Y-99594560D01*
X153080235Y-99643843D01*
X152870191Y-99784191D01*
X152777000Y-99923660D01*
X152777000Y-98711578D01*
X155243769Y-96244810D01*
X155283191Y-96303809D01*
X155493235Y-96444157D01*
X155741000Y-96493440D01*
X157441000Y-96493440D01*
X157688765Y-96444157D01*
X157898809Y-96303809D01*
X158039157Y-96093765D01*
X158048184Y-96048381D01*
X158060375Y-96066625D01*
X158551582Y-96394839D01*
X158984744Y-96481000D01*
X159277256Y-96481000D01*
X159710418Y-96394839D01*
X160201625Y-96066625D01*
X160414843Y-95747522D01*
X160475817Y-95877358D01*
X160904076Y-96267645D01*
X161314110Y-96437476D01*
X161544000Y-96316155D01*
X161544000Y-95123000D01*
X161798000Y-95123000D01*
X161798000Y-96316155D01*
X162027890Y-96437476D01*
X162437924Y-96267645D01*
X162866183Y-95877358D01*
X163112486Y-95352892D01*
X162991819Y-95123000D01*
X161798000Y-95123000D01*
X161544000Y-95123000D01*
X161524000Y-95123000D01*
X161524000Y-94869000D01*
X161544000Y-94869000D01*
X161544000Y-92583000D01*
X161798000Y-92583000D01*
X161798000Y-94869000D01*
X162991819Y-94869000D01*
X163112486Y-94639108D01*
X162866183Y-94114642D01*
X162439729Y-93726000D01*
X162866183Y-93337358D01*
X163112486Y-92812892D01*
X162991819Y-92583000D01*
X161798000Y-92583000D01*
X161544000Y-92583000D01*
X161524000Y-92583000D01*
X161524000Y-92329000D01*
X161544000Y-92329000D01*
X161544000Y-90043000D01*
X161798000Y-90043000D01*
X161798000Y-92329000D01*
X162991819Y-92329000D01*
X163112486Y-92099108D01*
X162866183Y-91574642D01*
X162439729Y-91186000D01*
X162866183Y-90797358D01*
X163112486Y-90272892D01*
X162991819Y-90043000D01*
X161798000Y-90043000D01*
X161544000Y-90043000D01*
X161524000Y-90043000D01*
X161524000Y-89789000D01*
X161544000Y-89789000D01*
X161544000Y-88595845D01*
X161798000Y-88595845D01*
X161798000Y-89789000D01*
X162991819Y-89789000D01*
X163112486Y-89559108D01*
X162866183Y-89034642D01*
X162437924Y-88644355D01*
X162027890Y-88474524D01*
X161798000Y-88595845D01*
X161544000Y-88595845D01*
X161314110Y-88474524D01*
X160904076Y-88644355D01*
X160475817Y-89034642D01*
X160414843Y-89164478D01*
X160201625Y-88845375D01*
X159710418Y-88517161D01*
X159277256Y-88431000D01*
X158984744Y-88431000D01*
X158551582Y-88517161D01*
X158060375Y-88845375D01*
X158048184Y-88863619D01*
X158039157Y-88818235D01*
X157898809Y-88608191D01*
X157688765Y-88467843D01*
X157441000Y-88418560D01*
X155741000Y-88418560D01*
X155493235Y-88467843D01*
X155283191Y-88608191D01*
X155142843Y-88818235D01*
X155098326Y-89042041D01*
X154895690Y-89082348D01*
X154732586Y-89191331D01*
X154676845Y-89228576D01*
X154676844Y-89228577D01*
X154602951Y-89277951D01*
X154553577Y-89351844D01*
X149729000Y-94176422D01*
X149729000Y-92869578D01*
X155243769Y-87354810D01*
X155283191Y-87413809D01*
X155493235Y-87554157D01*
X155741000Y-87603440D01*
X157441000Y-87603440D01*
X157688765Y-87554157D01*
X157898809Y-87413809D01*
X158039157Y-87203765D01*
X158048184Y-87158381D01*
X158060375Y-87176625D01*
X158551582Y-87504839D01*
X158984744Y-87591000D01*
X159277256Y-87591000D01*
X159710418Y-87504839D01*
X160201625Y-87176625D01*
X160414843Y-86857522D01*
X160475817Y-86987358D01*
X160904076Y-87377645D01*
X161314110Y-87547476D01*
X161544000Y-87426155D01*
X161544000Y-86233000D01*
X161798000Y-86233000D01*
X161798000Y-87426155D01*
X162027890Y-87547476D01*
X162437924Y-87377645D01*
X162866183Y-86987358D01*
X163112486Y-86462892D01*
X162991819Y-86233000D01*
X161798000Y-86233000D01*
X161544000Y-86233000D01*
X161524000Y-86233000D01*
X161524000Y-85979000D01*
X161544000Y-85979000D01*
X161544000Y-83693000D01*
X161798000Y-83693000D01*
X161798000Y-85979000D01*
X162991819Y-85979000D01*
X163112486Y-85749108D01*
X162866183Y-85224642D01*
X162439729Y-84836000D01*
X162866183Y-84447358D01*
X163112486Y-83922892D01*
X162991819Y-83693000D01*
X161798000Y-83693000D01*
X161544000Y-83693000D01*
X161524000Y-83693000D01*
X161524000Y-83439000D01*
X161544000Y-83439000D01*
X161544000Y-81153000D01*
X161798000Y-81153000D01*
X161798000Y-83439000D01*
X162991819Y-83439000D01*
X163112486Y-83209108D01*
X162866183Y-82684642D01*
X162439729Y-82296000D01*
X162866183Y-81907358D01*
X163112486Y-81382892D01*
X162991819Y-81153000D01*
X161798000Y-81153000D01*
X161544000Y-81153000D01*
X161524000Y-81153000D01*
X161524000Y-80899000D01*
X161544000Y-80899000D01*
X161544000Y-79705845D01*
X161798000Y-79705845D01*
X161798000Y-80899000D01*
X162991819Y-80899000D01*
X163112486Y-80669108D01*
X162866183Y-80144642D01*
X162437924Y-79754355D01*
X162027890Y-79584524D01*
X161798000Y-79705845D01*
X161544000Y-79705845D01*
X161314110Y-79584524D01*
X160904076Y-79754355D01*
X160475817Y-80144642D01*
X160414843Y-80274478D01*
X160201625Y-79955375D01*
X159710418Y-79627161D01*
X159277256Y-79541000D01*
X158984744Y-79541000D01*
X158551582Y-79627161D01*
X158060375Y-79955375D01*
X158048184Y-79973619D01*
X158039157Y-79928235D01*
X157898809Y-79718191D01*
X157688765Y-79577843D01*
X157441000Y-79528560D01*
X155741000Y-79528560D01*
X155493235Y-79577843D01*
X155283191Y-79718191D01*
X155142843Y-79928235D01*
X155098326Y-80152041D01*
X154895690Y-80192348D01*
X154676845Y-80338576D01*
X154676844Y-80338577D01*
X154602951Y-80387951D01*
X154553577Y-80461844D01*
X152458185Y-82557237D01*
X152576965Y-82226777D01*
X152549778Y-81656546D01*
X152388395Y-81266933D01*
X152528157Y-81057765D01*
X152577440Y-80810000D01*
X152577440Y-79210000D01*
X152528157Y-78962235D01*
X152387809Y-78752191D01*
X152177765Y-78611843D01*
X151930000Y-78562560D01*
X150330000Y-78562560D01*
X150082235Y-78611843D01*
X149872191Y-78752191D01*
X149731843Y-78962235D01*
X149682560Y-79210000D01*
X149682560Y-80810000D01*
X149731843Y-81057765D01*
X149871995Y-81267516D01*
X149683035Y-81793223D01*
X149710222Y-82363454D01*
X149876136Y-82764005D01*
X150122255Y-82838139D01*
X150950395Y-82010000D01*
X150936252Y-81995858D01*
X151115858Y-81816253D01*
X151130000Y-81830395D01*
X151144143Y-81816253D01*
X151323748Y-81995858D01*
X151309605Y-82010000D01*
X151323748Y-82024142D01*
X151144142Y-82203748D01*
X151130000Y-82189605D01*
X150301861Y-83017745D01*
X150375995Y-83263864D01*
X150913223Y-83456965D01*
X151483454Y-83429778D01*
X151657903Y-83357519D01*
X147644847Y-87370575D01*
X147570951Y-87419951D01*
X147563191Y-87431564D01*
X147671114Y-86889001D01*
X147559741Y-86329092D01*
X147242578Y-85854424D01*
X146890243Y-85619001D01*
X147242578Y-85383578D01*
X147559741Y-84908910D01*
X147671114Y-84349001D01*
X147559741Y-83789092D01*
X147242578Y-83314424D01*
X146858893Y-83058054D01*
X147063135Y-82961390D01*
X147439042Y-82546424D01*
X147599905Y-82158040D01*
X147477916Y-81936001D01*
X146335001Y-81936001D01*
X146335001Y-81956001D01*
X146081001Y-81956001D01*
X146081001Y-81936001D01*
X144938086Y-81936001D01*
X144816097Y-82158040D01*
X144976960Y-82546424D01*
X145352867Y-82961390D01*
X145557109Y-83058054D01*
X145173424Y-83314424D01*
X144856261Y-83789092D01*
X144744888Y-84349001D01*
X144856261Y-84908910D01*
X145173424Y-85383578D01*
X145525759Y-85619001D01*
X145173424Y-85854424D01*
X144856261Y-86329092D01*
X144744888Y-86889001D01*
X144856261Y-87448910D01*
X145173424Y-87923578D01*
X145525759Y-88159001D01*
X145173424Y-88394424D01*
X144856261Y-88869092D01*
X144744888Y-89429001D01*
X144856261Y-89988910D01*
X145173424Y-90463578D01*
X145525759Y-90699001D01*
X145173424Y-90934424D01*
X144856261Y-91409092D01*
X144744888Y-91969001D01*
X144856261Y-92528910D01*
X145173424Y-93003578D01*
X145525759Y-93239001D01*
X145173424Y-93474424D01*
X145073480Y-93624001D01*
X143760997Y-93624001D01*
X143433862Y-93296866D01*
X142906439Y-93078400D01*
X142335561Y-93078400D01*
X141808138Y-93296866D01*
X141404466Y-93700538D01*
X141186000Y-94227961D01*
X141186000Y-94798839D01*
X141239728Y-94928549D01*
X141008000Y-94696822D01*
X141008000Y-94227961D01*
X140789534Y-93700538D01*
X140385862Y-93296866D01*
X139858439Y-93078400D01*
X139287561Y-93078400D01*
X138760138Y-93296866D01*
X138356466Y-93700538D01*
X138138000Y-94227961D01*
X138138000Y-94798839D01*
X138356466Y-95326262D01*
X138760138Y-95729934D01*
X139287561Y-95948400D01*
X139756422Y-95948400D01*
X141421177Y-97613156D01*
X141470552Y-97687050D01*
X141544445Y-97736424D01*
X141544446Y-97736425D01*
X141610927Y-97780846D01*
X141763291Y-97882653D01*
X142021436Y-97934001D01*
X142021440Y-97934001D01*
X142108600Y-97951338D01*
X142195760Y-97934001D01*
X145073480Y-97934001D01*
X145173424Y-98083578D01*
X145525759Y-98319001D01*
X145173424Y-98554424D01*
X144856261Y-99029092D01*
X144744888Y-99589001D01*
X144856261Y-100148910D01*
X145173424Y-100623578D01*
X145525759Y-100859001D01*
X145173424Y-101094424D01*
X144856261Y-101569092D01*
X144744888Y-102129001D01*
X144856261Y-102688910D01*
X145173424Y-103163578D01*
X145525759Y-103399001D01*
X145173424Y-103634424D01*
X144856261Y-104109092D01*
X144744888Y-104669001D01*
X144856261Y-105228910D01*
X145173424Y-105703578D01*
X145525759Y-105939001D01*
X145173424Y-106174424D01*
X144856261Y-106649092D01*
X144744888Y-107209001D01*
X144856261Y-107768910D01*
X145173424Y-108243578D01*
X145525759Y-108479001D01*
X145173424Y-108714424D01*
X144856261Y-109189092D01*
X144744888Y-109749001D01*
X144856261Y-110308910D01*
X145173424Y-110783578D01*
X145525759Y-111019001D01*
X145173424Y-111254424D01*
X144856261Y-111729092D01*
X144744888Y-112289001D01*
X144856261Y-112848910D01*
X145173424Y-113323578D01*
X145525759Y-113559001D01*
X145173424Y-113794424D01*
X144856261Y-114269092D01*
X144744888Y-114829001D01*
X144847328Y-115344002D01*
X142040997Y-115344002D01*
X142194740Y-115113909D01*
X142306113Y-114554000D01*
X142194740Y-113994091D01*
X141877577Y-113519423D01*
X141402909Y-113202260D01*
X140984333Y-113119000D01*
X140701667Y-113119000D01*
X140283091Y-113202260D01*
X139808423Y-113519423D01*
X139491260Y-113994091D01*
X139379887Y-114554000D01*
X139491260Y-115113909D01*
X139808423Y-115588577D01*
X139942144Y-115677926D01*
X139940663Y-115685370D01*
X140009348Y-116030679D01*
X140118484Y-116194012D01*
X139428221Y-116194012D01*
X138750726Y-115516517D01*
X139019740Y-115113909D01*
X139131113Y-114554000D01*
X139019740Y-113994091D01*
X138702577Y-113519423D01*
X138227909Y-113202260D01*
X137809333Y-113119000D01*
X137526667Y-113119000D01*
X137108091Y-113202260D01*
X136633423Y-113519423D01*
X136316260Y-113994091D01*
X136204887Y-114554000D01*
X136316260Y-115113909D01*
X136339966Y-115149388D01*
X135921017Y-114730439D01*
X135956113Y-114554000D01*
X135844740Y-113994091D01*
X135527577Y-113519423D01*
X135052909Y-113202260D01*
X134634333Y-113119000D01*
X134351667Y-113119000D01*
X133933091Y-113202260D01*
X133458423Y-113519423D01*
X133141260Y-113994091D01*
X133029887Y-114554000D01*
X132376413Y-114554000D01*
X132319741Y-114269092D01*
X132002578Y-113794424D01*
X131650243Y-113559001D01*
X132002578Y-113323578D01*
X132319741Y-112848910D01*
X132431114Y-112289001D01*
X132319741Y-111729092D01*
X132002578Y-111254424D01*
X131650243Y-111019001D01*
X132002578Y-110783578D01*
X132102522Y-110634001D01*
X134765838Y-110634001D01*
X134852999Y-110651338D01*
X134940160Y-110634001D01*
X134940164Y-110634001D01*
X135198309Y-110582653D01*
X135491048Y-110387050D01*
X135540424Y-110313154D01*
X137484579Y-108369000D01*
X137953439Y-108369000D01*
X138480862Y-108150534D01*
X138884534Y-107746862D01*
X139103000Y-107219439D01*
X139103000Y-106648561D01*
X139007912Y-106418999D01*
X139076421Y-106418999D01*
X139408000Y-106750579D01*
X139408000Y-107219439D01*
X139626466Y-107746862D01*
X140030138Y-108150534D01*
X140557561Y-108369000D01*
X141128439Y-108369000D01*
X141655862Y-108150534D01*
X142059534Y-107746862D01*
X142278000Y-107219439D01*
X142278000Y-106648561D01*
X142059534Y-106121138D01*
X141655862Y-105717466D01*
X141128439Y-105499000D01*
X140659579Y-105499000D01*
X140130424Y-104969845D01*
X140081048Y-104895950D01*
X139788309Y-104700347D01*
X139530164Y-104648999D01*
X139530160Y-104648999D01*
X139442999Y-104631662D01*
X139355838Y-104648999D01*
X132730164Y-104648999D01*
X132643003Y-104631662D01*
X132555842Y-104648999D01*
X132555838Y-104648999D01*
X132430118Y-104674006D01*
X132431114Y-104669001D01*
X132319741Y-104109092D01*
X132002578Y-103634424D01*
X131650243Y-103399001D01*
X132002578Y-103163578D01*
X132319741Y-102688910D01*
X132431114Y-102129001D01*
X132319741Y-101569092D01*
X132002578Y-101094424D01*
X131650243Y-100859001D01*
X132002578Y-100623578D01*
X132319741Y-100148910D01*
X132431114Y-99589001D01*
X132319741Y-99029092D01*
X132002578Y-98554424D01*
X131650243Y-98319001D01*
X132002578Y-98083578D01*
X132319741Y-97608910D01*
X132431114Y-97049001D01*
X132319741Y-96489092D01*
X132002578Y-96014424D01*
X131650243Y-95779001D01*
X132002578Y-95543578D01*
X132319741Y-95068910D01*
X132431114Y-94509001D01*
X132319741Y-93949092D01*
X132002578Y-93474424D01*
X131650243Y-93239001D01*
X132002578Y-93003578D01*
X132319741Y-92528910D01*
X132431114Y-91969001D01*
X132319741Y-91409092D01*
X132002578Y-90934424D01*
X131650243Y-90699001D01*
X132002578Y-90463578D01*
X132319741Y-89988910D01*
X132431114Y-89429001D01*
X132319741Y-88869092D01*
X132002578Y-88394424D01*
X131618893Y-88138054D01*
X131823135Y-88041390D01*
X132199042Y-87626424D01*
X132359905Y-87238040D01*
X132237916Y-87016001D01*
X131095001Y-87016001D01*
X131095001Y-87036001D01*
X130841001Y-87036001D01*
X130841001Y-87016001D01*
X129698086Y-87016001D01*
X129576097Y-87238040D01*
X129736960Y-87626424D01*
X130112867Y-88041390D01*
X130317109Y-88138054D01*
X129933424Y-88394424D01*
X129616261Y-88869092D01*
X129591414Y-88994007D01*
X126384332Y-92201090D01*
X126453000Y-92035310D01*
X126453000Y-91344750D01*
X126294250Y-91186000D01*
X125095000Y-91186000D01*
X125095000Y-92385250D01*
X125253750Y-92544000D01*
X125944309Y-92544000D01*
X126110091Y-92475331D01*
X125186960Y-93398462D01*
X125114256Y-93384000D01*
X124821744Y-93384000D01*
X124388582Y-93470161D01*
X123897375Y-93798375D01*
X123569161Y-94289582D01*
X123453908Y-94869000D01*
X123569161Y-95448418D01*
X123897375Y-95939625D01*
X124195761Y-96139000D01*
X123897375Y-96338375D01*
X123569161Y-96829582D01*
X123453908Y-97409000D01*
X123569161Y-97988418D01*
X123897375Y-98479625D01*
X123915619Y-98491816D01*
X123870235Y-98500843D01*
X123660191Y-98641191D01*
X123519843Y-98851235D01*
X123470560Y-99099000D01*
X123470560Y-100799000D01*
X123519843Y-101046765D01*
X123660191Y-101256809D01*
X123870235Y-101397157D01*
X124118000Y-101446440D01*
X125818000Y-101446440D01*
X126065765Y-101397157D01*
X126103434Y-101371987D01*
X125186960Y-102288462D01*
X125114256Y-102274000D01*
X124821744Y-102274000D01*
X124388582Y-102360161D01*
X123897375Y-102688375D01*
X123569161Y-103179582D01*
X123453908Y-103759000D01*
X123569161Y-104338418D01*
X123897375Y-104829625D01*
X124195761Y-105029000D01*
X123897375Y-105228375D01*
X123569161Y-105719582D01*
X123453908Y-106299000D01*
X123569161Y-106878418D01*
X123897375Y-107369625D01*
X123915619Y-107381816D01*
X123870235Y-107390843D01*
X123660191Y-107531191D01*
X123519843Y-107741235D01*
X123470560Y-107989000D01*
X123470560Y-109689000D01*
X123519843Y-109936765D01*
X123660191Y-110146809D01*
X123870235Y-110287157D01*
X124118000Y-110336440D01*
X125818000Y-110336440D01*
X126065765Y-110287157D01*
X126275809Y-110146809D01*
X126416157Y-109936765D01*
X126460674Y-109712959D01*
X126663310Y-109672652D01*
X126956049Y-109477049D01*
X127005425Y-109403153D01*
X128683001Y-107725578D01*
X128683000Y-110937421D01*
X126315231Y-113305190D01*
X126275809Y-113246191D01*
X126065765Y-113105843D01*
X125818000Y-113056560D01*
X124118000Y-113056560D01*
X123870235Y-113105843D01*
X123660191Y-113246191D01*
X123519843Y-113456235D01*
X123510816Y-113501619D01*
X123498625Y-113483375D01*
X123007418Y-113155161D01*
X122574256Y-113069000D01*
X122281744Y-113069000D01*
X121848582Y-113155161D01*
X121357375Y-113483375D01*
X121144157Y-113802478D01*
X121083183Y-113672642D01*
X120654924Y-113282355D01*
X120244890Y-113112524D01*
X120015000Y-113233845D01*
X119761000Y-113233845D01*
X119531110Y-113112524D01*
X119121076Y-113282355D01*
X118692817Y-113672642D01*
X118446514Y-114197108D01*
X109710000Y-114197108D01*
X109710000Y-91344750D01*
X123483000Y-91344750D01*
X123483000Y-92035310D01*
X123579673Y-92268699D01*
X123758302Y-92447327D01*
X123991691Y-92544000D01*
X124682250Y-92544000D01*
X124841000Y-92385250D01*
X124841000Y-91186000D01*
X123641750Y-91186000D01*
X123483000Y-91344750D01*
X109710000Y-91344750D01*
X109710000Y-90082690D01*
X123483000Y-90082690D01*
X123483000Y-90773250D01*
X123641750Y-90932000D01*
X124841000Y-90932000D01*
X124841000Y-89732750D01*
X125095000Y-89732750D01*
X125095000Y-90932000D01*
X126294250Y-90932000D01*
X126453000Y-90773250D01*
X126453000Y-90082690D01*
X126356327Y-89849301D01*
X126177698Y-89670673D01*
X125944309Y-89574000D01*
X125253750Y-89574000D01*
X125095000Y-89732750D01*
X124841000Y-89732750D01*
X124682250Y-89574000D01*
X123991691Y-89574000D01*
X123758302Y-89670673D01*
X123579673Y-89849301D01*
X123483000Y-90082690D01*
X109710000Y-90082690D01*
X109710000Y-86893400D01*
X138109887Y-86893400D01*
X138221260Y-87453309D01*
X138538423Y-87927977D01*
X139013091Y-88245140D01*
X139431667Y-88328400D01*
X139714333Y-88328400D01*
X140132909Y-88245140D01*
X140607577Y-87927977D01*
X140924740Y-87453309D01*
X141036113Y-86893400D01*
X141157887Y-86893400D01*
X141269260Y-87453309D01*
X141586423Y-87927977D01*
X142061091Y-88245140D01*
X142479667Y-88328400D01*
X142762333Y-88328400D01*
X143180909Y-88245140D01*
X143655577Y-87927977D01*
X143972740Y-87453309D01*
X144084113Y-86893400D01*
X143972740Y-86333491D01*
X143655577Y-85858823D01*
X143180909Y-85541660D01*
X142762333Y-85458400D01*
X142479667Y-85458400D01*
X142061091Y-85541660D01*
X141586423Y-85858823D01*
X141269260Y-86333491D01*
X141157887Y-86893400D01*
X141036113Y-86893400D01*
X140924740Y-86333491D01*
X140607577Y-85858823D01*
X140132909Y-85541660D01*
X139714333Y-85458400D01*
X139431667Y-85458400D01*
X139013091Y-85541660D01*
X138538423Y-85858823D01*
X138221260Y-86333491D01*
X138109887Y-86893400D01*
X109710000Y-86893400D01*
X109710000Y-83859000D01*
X123470560Y-83859000D01*
X123470560Y-85559000D01*
X123519843Y-85806765D01*
X123660191Y-86016809D01*
X123870235Y-86157157D01*
X124118000Y-86206440D01*
X125818000Y-86206440D01*
X126065765Y-86157157D01*
X126275809Y-86016809D01*
X126416157Y-85806765D01*
X126465440Y-85559000D01*
X126465440Y-83859000D01*
X126416157Y-83611235D01*
X126275809Y-83401191D01*
X126065765Y-83260843D01*
X125962292Y-83240261D01*
X126239645Y-82935924D01*
X126409476Y-82525890D01*
X126288155Y-82296000D01*
X125095000Y-82296000D01*
X125095000Y-82316000D01*
X124841000Y-82316000D01*
X124841000Y-82296000D01*
X123647845Y-82296000D01*
X123526524Y-82525890D01*
X123696355Y-82935924D01*
X123973708Y-83240261D01*
X123870235Y-83260843D01*
X123660191Y-83401191D01*
X123519843Y-83611235D01*
X123470560Y-83859000D01*
X109710000Y-83859000D01*
X109710000Y-77089000D01*
X123453908Y-77089000D01*
X123569161Y-77668418D01*
X123897375Y-78159625D01*
X124195761Y-78359000D01*
X123897375Y-78558375D01*
X123569161Y-79049582D01*
X123453908Y-79629000D01*
X123569161Y-80208418D01*
X123897375Y-80699625D01*
X124216478Y-80912843D01*
X124086642Y-80973817D01*
X123696355Y-81402076D01*
X123526524Y-81812110D01*
X123647845Y-82042000D01*
X124841000Y-82042000D01*
X124841000Y-82022000D01*
X125095000Y-82022000D01*
X125095000Y-82042000D01*
X126288155Y-82042000D01*
X126409476Y-81812110D01*
X126239645Y-81402076D01*
X125849358Y-80973817D01*
X125719522Y-80912843D01*
X126038625Y-80699625D01*
X126096873Y-80612451D01*
X127857578Y-82373157D01*
X127906952Y-82447050D01*
X127980845Y-82496424D01*
X127980846Y-82496425D01*
X128055675Y-82546424D01*
X128199691Y-82642653D01*
X128457836Y-82694001D01*
X128457840Y-82694001D01*
X128545001Y-82711338D01*
X128632162Y-82694001D01*
X129833480Y-82694001D01*
X129933424Y-82843578D01*
X130285759Y-83079001D01*
X129933424Y-83314424D01*
X129616261Y-83789092D01*
X129504888Y-84349001D01*
X129616261Y-84908910D01*
X129933424Y-85383578D01*
X130317109Y-85639948D01*
X130112867Y-85736612D01*
X129736960Y-86151578D01*
X129576097Y-86539962D01*
X129698086Y-86762001D01*
X130841001Y-86762001D01*
X130841001Y-86742001D01*
X131095001Y-86742001D01*
X131095001Y-86762001D01*
X132237916Y-86762001D01*
X132359905Y-86539962D01*
X132199042Y-86151578D01*
X131823135Y-85736612D01*
X131618893Y-85639948D01*
X132002578Y-85383578D01*
X132319741Y-84908910D01*
X132431114Y-84349001D01*
X132319741Y-83789092D01*
X132002578Y-83314424D01*
X131650243Y-83079001D01*
X132002578Y-82843578D01*
X132319741Y-82368910D01*
X132431114Y-81809001D01*
X132319741Y-81249092D01*
X132002578Y-80774424D01*
X131881895Y-80693786D01*
X132015766Y-80667158D01*
X132225810Y-80526810D01*
X132245205Y-80497783D01*
X133608000Y-81860579D01*
X133608001Y-83490461D01*
X133608000Y-83490466D01*
X133608000Y-83574479D01*
X133458423Y-83674423D01*
X133141260Y-84149091D01*
X133029887Y-84709000D01*
X133141260Y-85268909D01*
X133458423Y-85743577D01*
X133933091Y-86060740D01*
X134351667Y-86144000D01*
X134634333Y-86144000D01*
X135052909Y-86060740D01*
X135527577Y-85743577D01*
X135545505Y-85716745D01*
X136839861Y-85716745D01*
X136913995Y-85962864D01*
X137451223Y-86155965D01*
X138021454Y-86128778D01*
X138422005Y-85962864D01*
X138496139Y-85716745D01*
X137668000Y-84888605D01*
X136839861Y-85716745D01*
X135545505Y-85716745D01*
X135844740Y-85268909D01*
X135956113Y-84709000D01*
X135912994Y-84492223D01*
X136221035Y-84492223D01*
X136248222Y-85062454D01*
X136414136Y-85463005D01*
X136660255Y-85537139D01*
X137488395Y-84709000D01*
X137847605Y-84709000D01*
X138675745Y-85537139D01*
X138921864Y-85463005D01*
X139114965Y-84925777D01*
X139087778Y-84355546D01*
X138921864Y-83954995D01*
X138675745Y-83880861D01*
X137847605Y-84709000D01*
X137488395Y-84709000D01*
X136660255Y-83880861D01*
X136414136Y-83954995D01*
X136221035Y-84492223D01*
X135912994Y-84492223D01*
X135844740Y-84149091D01*
X135545506Y-83701255D01*
X136839861Y-83701255D01*
X137668000Y-84529395D01*
X138496139Y-83701255D01*
X138422005Y-83455136D01*
X137884777Y-83262035D01*
X137314546Y-83289222D01*
X136913995Y-83455136D01*
X136839861Y-83701255D01*
X135545506Y-83701255D01*
X135527577Y-83674423D01*
X135378000Y-83574479D01*
X135378000Y-81581161D01*
X135395337Y-81494000D01*
X135378000Y-81406839D01*
X135378000Y-81406835D01*
X135326652Y-81148690D01*
X135131049Y-80855951D01*
X135057156Y-80806577D01*
X133519580Y-79269001D01*
X144744888Y-79269001D01*
X144856261Y-79828910D01*
X145173424Y-80303578D01*
X145557109Y-80559948D01*
X145352867Y-80656612D01*
X144976960Y-81071578D01*
X144816097Y-81459962D01*
X144938086Y-81682001D01*
X146081001Y-81682001D01*
X146081001Y-81662001D01*
X146335001Y-81662001D01*
X146335001Y-81682001D01*
X147477916Y-81682001D01*
X147599905Y-81459962D01*
X147439042Y-81071578D01*
X147063135Y-80656612D01*
X146858893Y-80559948D01*
X147242578Y-80303578D01*
X147559741Y-79828910D01*
X147671114Y-79269001D01*
X147559741Y-78709092D01*
X147242578Y-78234424D01*
X146767910Y-77917261D01*
X146349334Y-77834001D01*
X146066668Y-77834001D01*
X145648092Y-77917261D01*
X145173424Y-78234424D01*
X144856261Y-78709092D01*
X144744888Y-79269001D01*
X133519580Y-79269001D01*
X132955426Y-78704848D01*
X132906050Y-78630952D01*
X132613311Y-78435349D01*
X132400320Y-78392983D01*
X132366158Y-78221236D01*
X132225810Y-78011192D01*
X132170149Y-77974000D01*
X133348604Y-77974000D01*
X133680138Y-78305534D01*
X134207561Y-78524000D01*
X134778439Y-78524000D01*
X135305862Y-78305534D01*
X135637396Y-77974000D01*
X136533479Y-77974000D01*
X136633423Y-78123577D01*
X137108091Y-78440740D01*
X137526667Y-78524000D01*
X137809333Y-78524000D01*
X138227909Y-78440740D01*
X138702577Y-78123577D01*
X139019740Y-77648909D01*
X139131113Y-77089000D01*
X139019740Y-76529091D01*
X138702577Y-76054423D01*
X138227909Y-75737260D01*
X137809333Y-75654000D01*
X137526667Y-75654000D01*
X137108091Y-75737260D01*
X136633423Y-76054423D01*
X136533479Y-76204000D01*
X135637396Y-76204000D01*
X135305862Y-75872466D01*
X134778439Y-75654000D01*
X134207561Y-75654000D01*
X133680138Y-75872466D01*
X133348604Y-76204000D01*
X126162656Y-76204000D01*
X126038625Y-76018375D01*
X125547418Y-75690161D01*
X125114256Y-75604000D01*
X124821744Y-75604000D01*
X124388582Y-75690161D01*
X123897375Y-76018375D01*
X123569161Y-76509582D01*
X123453908Y-77089000D01*
X109710000Y-77089000D01*
X109710000Y-74338571D01*
X117357034Y-74338571D01*
X117547328Y-74683319D01*
X118428576Y-75035015D01*
X119377332Y-75022701D01*
X120196672Y-74683319D01*
X120386966Y-74338571D01*
X118872000Y-72823605D01*
X117357034Y-74338571D01*
X109710000Y-74338571D01*
X109710000Y-72200576D01*
X116480985Y-72200576D01*
X116493299Y-73149332D01*
X116832681Y-73968672D01*
X117177429Y-74158966D01*
X118692395Y-72644000D01*
X119051605Y-72644000D01*
X120566571Y-74158966D01*
X120911319Y-73968672D01*
X121263015Y-73087424D01*
X121250701Y-72138668D01*
X120911319Y-71319328D01*
X120566571Y-71129034D01*
X119051605Y-72644000D01*
X118692395Y-72644000D01*
X117177429Y-71129034D01*
X116832681Y-71319328D01*
X116480985Y-72200576D01*
X109710000Y-72200576D01*
X109710000Y-70949429D01*
X117357034Y-70949429D01*
X118872000Y-72464395D01*
X120256650Y-71079745D01*
X143316861Y-71079745D01*
X143390995Y-71325864D01*
X143928223Y-71518965D01*
X144498454Y-71491778D01*
X144899005Y-71325864D01*
X144973139Y-71079745D01*
X144145000Y-70251605D01*
X143316861Y-71079745D01*
X120256650Y-71079745D01*
X120386966Y-70949429D01*
X120196672Y-70604681D01*
X119315424Y-70252985D01*
X118366668Y-70265299D01*
X117547328Y-70604681D01*
X117357034Y-70949429D01*
X109710000Y-70949429D01*
X109710000Y-65813940D01*
X116474500Y-65813940D01*
X116474500Y-69314060D01*
X116523783Y-69561825D01*
X116664131Y-69771869D01*
X116874175Y-69912217D01*
X117121940Y-69961500D01*
X120622060Y-69961500D01*
X120869825Y-69912217D01*
X121079869Y-69771869D01*
X121220217Y-69561825D01*
X121269500Y-69314060D01*
X121269500Y-68699000D01*
X122940932Y-68699000D01*
X122989676Y-68944054D01*
X123483655Y-69683345D01*
X124222946Y-70177324D01*
X124874872Y-70307000D01*
X125315128Y-70307000D01*
X125967054Y-70177324D01*
X126706345Y-69683345D01*
X127200324Y-68944054D01*
X127373786Y-68072000D01*
X127200324Y-67199946D01*
X126713926Y-66472000D01*
X135547560Y-66472000D01*
X135547560Y-69672000D01*
X135596843Y-69919765D01*
X135737191Y-70129809D01*
X135947235Y-70270157D01*
X136195000Y-70319440D01*
X139395000Y-70319440D01*
X139642765Y-70270157D01*
X139852809Y-70129809D01*
X139993157Y-69919765D01*
X140042440Y-69672000D01*
X140042440Y-69207000D01*
X142805132Y-69207000D01*
X142886995Y-69329516D01*
X142698035Y-69855223D01*
X142725222Y-70425454D01*
X142891136Y-70826005D01*
X143137255Y-70900139D01*
X143965395Y-70072000D01*
X143951252Y-70057858D01*
X144130858Y-69878253D01*
X144145000Y-69892395D01*
X144159143Y-69878253D01*
X144338748Y-70057858D01*
X144324605Y-70072000D01*
X145152745Y-70900139D01*
X145398864Y-70826005D01*
X145591965Y-70288777D01*
X145564778Y-69718546D01*
X145403395Y-69328933D01*
X145484868Y-69207000D01*
X146897369Y-69207000D01*
X152324060Y-74633692D01*
X152324060Y-75676000D01*
X152373343Y-75923765D01*
X152513691Y-76133809D01*
X152723735Y-76274157D01*
X152971500Y-76323440D01*
X154876500Y-76323440D01*
X155124265Y-76274157D01*
X155334309Y-76133809D01*
X155471255Y-75928857D01*
X155597076Y-76051973D01*
X156091020Y-76266563D01*
X156337000Y-76146594D01*
X156337000Y-74803000D01*
X156317000Y-74803000D01*
X156317000Y-74549000D01*
X156337000Y-74549000D01*
X156337000Y-73205406D01*
X156591000Y-73205406D01*
X156591000Y-74549000D01*
X156611000Y-74549000D01*
X156611000Y-74803000D01*
X156591000Y-74803000D01*
X156591000Y-76146594D01*
X156836980Y-76266563D01*
X157330924Y-76051973D01*
X157724841Y-75666526D01*
X157859477Y-75868023D01*
X158384590Y-76218891D01*
X159004000Y-76342100D01*
X159623411Y-76218891D01*
X160148523Y-75868023D01*
X160499391Y-75342910D01*
X160591500Y-74879849D01*
X160591500Y-74472150D01*
X160499391Y-74009089D01*
X160148523Y-73483977D01*
X159623410Y-73133109D01*
X159004000Y-73009900D01*
X158384589Y-73133109D01*
X157859477Y-73483977D01*
X157724841Y-73685474D01*
X157330924Y-73300027D01*
X156836980Y-73085437D01*
X156591000Y-73205406D01*
X156337000Y-73205406D01*
X156091020Y-73085437D01*
X155597076Y-73300027D01*
X155471255Y-73423143D01*
X155334309Y-73218191D01*
X155124265Y-73077843D01*
X154876500Y-73028560D01*
X153929192Y-73028560D01*
X148249113Y-67348482D01*
X148185789Y-67253711D01*
X147810355Y-67002854D01*
X147479283Y-66937000D01*
X147367500Y-66914765D01*
X147255717Y-66937000D01*
X145484868Y-66937000D01*
X145402809Y-66814191D01*
X145192765Y-66673843D01*
X144945000Y-66624560D01*
X143345000Y-66624560D01*
X143097235Y-66673843D01*
X142887191Y-66814191D01*
X142805132Y-66937000D01*
X140042440Y-66937000D01*
X140042440Y-66472000D01*
X139993157Y-66224235D01*
X139852809Y-66014191D01*
X139642765Y-65873843D01*
X139395000Y-65824560D01*
X136195000Y-65824560D01*
X135947235Y-65873843D01*
X135737191Y-66014191D01*
X135596843Y-66224235D01*
X135547560Y-66472000D01*
X126713926Y-66472000D01*
X126706345Y-66460655D01*
X125967054Y-65966676D01*
X125315128Y-65837000D01*
X124874872Y-65837000D01*
X124222946Y-65966676D01*
X123531030Y-66429000D01*
X121269500Y-66429000D01*
X121269500Y-65813940D01*
X121220217Y-65566175D01*
X121079869Y-65356131D01*
X120869825Y-65215783D01*
X120622060Y-65166500D01*
X117121940Y-65166500D01*
X116874175Y-65215783D01*
X116664131Y-65356131D01*
X116523783Y-65566175D01*
X116474500Y-65813940D01*
X109710000Y-65813940D01*
X109710000Y-59592040D01*
X109770667Y-59592040D01*
X109770667Y-60407960D01*
X109973578Y-61198245D01*
X110366650Y-61913241D01*
X110925185Y-62508021D01*
X111614088Y-62945212D01*
X112390074Y-63197345D01*
X113204383Y-63248577D01*
X114005850Y-63095689D01*
X114744116Y-62748287D01*
X115372793Y-62228201D01*
X115852378Y-61568108D01*
X116152738Y-60809486D01*
X116255000Y-60000000D01*
X116203463Y-59592040D01*
X165770667Y-59592040D01*
X165770667Y-60407960D01*
X165973578Y-61198245D01*
X166366650Y-61913241D01*
X166925185Y-62508021D01*
X167614088Y-62945212D01*
X168390074Y-63197345D01*
X169204383Y-63248577D01*
X170005850Y-63095689D01*
X170744116Y-62748287D01*
X171372793Y-62228201D01*
X171852378Y-61568108D01*
X172152738Y-60809486D01*
X172255000Y-60000000D01*
X172152738Y-59190514D01*
X171852378Y-58431892D01*
X171372793Y-57771799D01*
X170744116Y-57251713D01*
X170005850Y-56904311D01*
X169204383Y-56751423D01*
X168390074Y-56802655D01*
X167614088Y-57054788D01*
X166925185Y-57491979D01*
X166366650Y-58086759D01*
X165973578Y-58801755D01*
X165770667Y-59592040D01*
X116203463Y-59592040D01*
X116152738Y-59190514D01*
X115852378Y-58431892D01*
X115372793Y-57771799D01*
X114744116Y-57251713D01*
X114005850Y-56904311D01*
X113204383Y-56751423D01*
X112390074Y-56802655D01*
X111614088Y-57054788D01*
X110925185Y-57491979D01*
X110366650Y-58086759D01*
X109973578Y-58801755D01*
X109770667Y-59592040D01*
X109710000Y-59592040D01*
X109710000Y-56710000D01*
X172290001Y-56710000D01*
X172290000Y-127290000D01*
G04 #@! TD*
M02*
