M48
;DRILL file {KiCad 5.0.2-bee76a0~70~ubuntu14.04.1} date Ned 26 Svi 2019 21:20:17
;FORMAT={-:-/ absolute / inch / decimal}
FMAT,2
INCH,TZ
T1C0.0315
T2C0.0394
T3C0.0433
T4C0.0591
T5C0.0630
%
G90
G05
T1
X5.615Y-3.421
X5.1562Y-3.6208
X5.675Y-2.68
X5.675Y-2.7587
X5.295Y-3.035
X5.295Y-3.335
X5.42Y-4.21
X5.42Y-4.51
X5.545Y-4.21
X5.545Y-4.51
X5.295Y-4.21
X5.295Y-4.51
X5.95Y-3.15
X5.95Y-3.2287
X5.615Y-3.721
X5.42Y-3.035
X5.42Y-3.335
X5.495Y-3.421
X5.495Y-3.721
X5.1562Y-3.1208
X5.1562Y-3.2208
X5.1562Y-3.3208
X5.1562Y-3.4208
X5.1562Y-3.5208
X5.1562Y-3.7208
X5.1562Y-3.8208
X5.1562Y-3.9208
X5.1562Y-4.0208
X5.1562Y-4.1208
X5.1562Y-4.2208
X5.1562Y-4.3208
X5.1562Y-4.4208
X5.1562Y-4.5208
X5.7562Y-3.1208
X5.7562Y-3.2208
X5.7562Y-3.3208
X5.7562Y-3.4208
X5.7562Y-3.5208
X5.7562Y-3.6208
X5.7562Y-3.7208
X5.7562Y-3.8208
X5.7562Y-3.9208
X5.7562Y-4.0208
X5.7562Y-4.1208
X5.7562Y-4.2208
X5.7562Y-4.3208
X5.7562Y-4.4208
X5.7562Y-4.5208
T2
X4.92Y-4.085
X4.92Y-4.185
X4.92Y-4.285
X6.07Y-3.98
X6.17Y-3.98
X6.27Y-3.98
X6.37Y-3.98
X6.165Y-3.29
X6.265Y-3.29
X6.365Y-3.29
X4.72Y-4.51
X4.82Y-4.51
X4.92Y-4.51
X6.165Y-3.19
X6.265Y-3.19
X6.365Y-3.19
X6.07Y-4.26
X6.17Y-4.26
X6.27Y-4.26
X6.37Y-4.26
X6.165Y-3.54
X6.265Y-3.54
X6.365Y-3.54
X6.165Y-3.39
X6.265Y-3.39
X6.365Y-3.39
X6.07Y-4.55
X6.17Y-4.55
X6.27Y-4.55
X6.37Y-4.55
X4.92Y-3.735
X4.92Y-3.835
X4.92Y-3.935
X4.92Y-3.585
X6.165Y-3.74
X6.265Y-3.74
X6.365Y-3.74
X4.92Y-3.035
X4.92Y-3.135
X4.92Y-3.235
X4.92Y-3.335
X6.165Y-3.64
X6.265Y-3.64
X6.365Y-3.64
T3
X6.06Y-2.94
X6.16Y-2.94
X6.26Y-2.94
T4
X4.68Y-2.66
X4.68Y-2.86
T5
X4.925Y-2.68
X5.425Y-2.68
T0
M30
